<svg width="491" height="48" viewBox="0 0 491 48" fill="none" xmlns="http://www.w3.org/2000/svg">
<rect y="4" width="40" height="40" fill="#00B29A"/>
<path d="M18.4211 14V22.4211H10V25.5789H18.4211V34H21.5789V25.5789H30V22.4211H21.5789V14H18.4211Z" fill="white"/>
<path d="M66.496 26.212L64.471 20.965C64.411 20.809 64.348 20.629 64.282 20.425C64.216 20.215 64.153 19.993 64.093 19.759C63.967 20.245 63.838 20.65 63.706 20.974L61.681 26.212H66.496ZM70.132 31H68.782C68.626 31 68.5 30.961 68.404 30.883C68.308 30.805 68.236 30.706 68.188 30.586L66.982 27.472H61.195L59.989 30.586C59.953 30.694 59.884 30.79 59.782 30.874C59.68 30.958 59.554 31 59.404 31H58.054L63.211 18.103H64.975L70.132 31ZM72.9275 23.71C73.2155 23.086 73.5695 22.6 73.9895 22.252C74.4095 21.898 74.9225 21.721 75.5285 21.721C75.7205 21.721 75.9035 21.742 76.0775 21.784C76.2575 21.826 76.4165 21.892 76.5545 21.982L76.4375 23.179C76.4015 23.329 76.3115 23.404 76.1675 23.404C76.0835 23.404 75.9605 23.386 75.7985 23.35C75.6365 23.314 75.4535 23.296 75.2495 23.296C74.9615 23.296 74.7035 23.338 74.4755 23.422C74.2535 23.506 74.0525 23.632 73.8725 23.8C73.6985 23.962 73.5395 24.166 73.3955 24.412C73.2575 24.652 73.1315 24.928 73.0175 25.24V31H71.4065V21.883H72.3245C72.4985 21.883 72.6185 21.916 72.6845 21.982C72.7505 22.048 72.7955 22.162 72.8195 22.324L72.9275 23.71ZM79.4751 23.71C79.7631 23.086 80.1171 22.6 80.5371 22.252C80.9571 21.898 81.4701 21.721 82.0761 21.721C82.2681 21.721 82.4511 21.742 82.6251 21.784C82.8051 21.826 82.9641 21.892 83.1021 21.982L82.9851 23.179C82.9491 23.329 82.8591 23.404 82.7151 23.404C82.6311 23.404 82.5081 23.386 82.3461 23.35C82.1841 23.314 82.0011 23.296 81.7971 23.296C81.5091 23.296 81.2511 23.338 81.0231 23.422C80.8011 23.506 80.6001 23.632 80.4201 23.8C80.2461 23.962 80.0871 24.166 79.9431 24.412C79.8051 24.652 79.6791 24.928 79.5651 25.24V31H77.9541V21.883H78.8721C79.0461 21.883 79.1661 21.916 79.2321 21.982C79.2981 22.048 79.3431 22.162 79.3671 22.324L79.4751 23.71ZM89.3021 26.896C88.5641 26.92 87.9341 26.98 87.4121 27.076C86.8961 27.166 86.4731 27.286 86.1431 27.436C85.8191 27.586 85.5821 27.763 85.4321 27.967C85.2881 28.171 85.2161 28.399 85.2161 28.651C85.2161 28.891 85.2551 29.098 85.3331 29.272C85.4111 29.446 85.5161 29.59 85.6481 29.704C85.7861 29.812 85.9451 29.893 86.1251 29.947C86.3111 29.995 86.5091 30.019 86.7191 30.019C87.0011 30.019 87.2591 29.992 87.4931 29.938C87.7271 29.878 87.9461 29.794 88.1501 29.686C88.3601 29.578 88.5581 29.449 88.7441 29.299C88.9361 29.149 89.1221 28.978 89.3021 28.786V26.896ZM84.1271 23.17C84.6311 22.684 85.1741 22.321 85.7561 22.081C86.3381 21.841 86.9831 21.721 87.6911 21.721C88.2011 21.721 88.6541 21.805 89.0501 21.973C89.4461 22.141 89.7791 22.375 90.0491 22.675C90.3191 22.975 90.5231 23.338 90.6611 23.764C90.7991 24.19 90.8681 24.658 90.8681 25.168V31H90.1571C90.0011 31 89.8811 30.976 89.7971 30.928C89.7131 30.874 89.6471 30.772 89.5991 30.622L89.4191 29.758C89.1791 29.98 88.9451 30.178 88.7171 30.352C88.4891 30.52 88.2491 30.664 87.9971 30.784C87.7451 30.898 87.4751 30.985 87.1871 31.045C86.9051 31.111 86.5901 31.144 86.2421 31.144C85.8881 31.144 85.5551 31.096 85.2431 31C84.9311 30.898 84.6581 30.748 84.4241 30.55C84.1961 30.352 84.0131 30.103 83.8751 29.803C83.7431 29.497 83.6771 29.137 83.6771 28.723C83.6771 28.363 83.7761 28.018 83.9741 27.688C84.1721 27.352 84.4931 27.055 84.9371 26.797C85.3811 26.539 85.9601 26.329 86.6741 26.167C87.3881 25.999 88.2641 25.903 89.3021 25.879V25.168C89.3021 24.46 89.1491 23.926 88.8431 23.566C88.5371 23.2 88.0901 23.017 87.5021 23.017C87.1061 23.017 86.7731 23.068 86.5031 23.17C86.2391 23.266 86.0081 23.377 85.8101 23.503C85.6181 23.623 85.4501 23.734 85.3061 23.836C85.1681 23.932 85.0301 23.98 84.8921 23.98C84.7841 23.98 84.6911 23.953 84.6131 23.899C84.5351 23.839 84.4691 23.767 84.4151 23.683L84.1271 23.17ZM98.6094 23.386C98.5374 23.518 98.4264 23.584 98.2764 23.584C98.1864 23.584 98.0844 23.551 97.9704 23.485C97.8564 23.419 97.7154 23.347 97.5474 23.269C97.3854 23.185 97.1904 23.11 96.9624 23.044C96.7344 22.972 96.4644 22.936 96.1524 22.936C95.8824 22.936 95.6394 22.972 95.4234 23.044C95.2074 23.11 95.0214 23.203 94.8654 23.323C94.7154 23.443 94.5984 23.584 94.5144 23.746C94.4364 23.902 94.3974 24.073 94.3974 24.259C94.3974 24.493 94.4634 24.688 94.5954 24.844C94.7334 25 94.9134 25.135 95.1354 25.249C95.3574 25.363 95.6094 25.465 95.8914 25.555C96.1734 25.639 96.4614 25.732 96.7554 25.834C97.0554 25.93 97.3464 26.038 97.6284 26.158C97.9104 26.278 98.1624 26.428 98.3844 26.608C98.6064 26.788 98.7834 27.01 98.9154 27.274C99.0534 27.532 99.1224 27.844 99.1224 28.21C99.1224 28.63 99.0474 29.02 98.8974 29.38C98.7474 29.734 98.5254 30.043 98.2314 30.307C97.9374 30.565 97.5774 30.769 97.1514 30.919C96.7254 31.069 96.2334 31.144 95.6754 31.144C95.0394 31.144 94.4634 31.042 93.9474 30.838C93.4314 30.628 92.9934 30.361 92.6334 30.037L93.0114 29.425C93.0594 29.347 93.1164 29.287 93.1824 29.245C93.2484 29.203 93.3324 29.182 93.4344 29.182C93.5424 29.182 93.6564 29.224 93.7764 29.308C93.8964 29.392 94.0404 29.485 94.2084 29.587C94.3824 29.689 94.5924 29.782 94.8384 29.866C95.0844 29.95 95.3904 29.992 95.7564 29.992C96.0684 29.992 96.3414 29.953 96.5754 29.875C96.8094 29.791 97.0044 29.68 97.1604 29.542C97.3164 29.404 97.4304 29.245 97.5024 29.065C97.5804 28.885 97.6194 28.693 97.6194 28.489C97.6194 28.237 97.5504 28.03 97.4124 27.868C97.2804 27.7 97.1034 27.559 96.8814 27.445C96.6594 27.325 96.4044 27.223 96.1164 27.139C95.8344 27.049 95.5434 26.956 95.2434 26.86C94.9494 26.764 94.6584 26.656 94.3704 26.536C94.0884 26.41 93.8364 26.254 93.6144 26.068C93.3924 25.882 93.2124 25.654 93.0744 25.384C92.9424 25.108 92.8764 24.775 92.8764 24.385C92.8764 24.037 92.9484 23.704 93.0924 23.386C93.2364 23.062 93.4464 22.78 93.7224 22.54C93.9984 22.294 94.3374 22.099 94.7394 21.955C95.1414 21.811 95.6004 21.739 96.1164 21.739C96.7164 21.739 97.2534 21.835 97.7274 22.027C98.2074 22.213 98.6214 22.471 98.9694 22.801L98.6094 23.386ZM103.877 31.144C103.157 31.144 102.602 30.943 102.212 30.541C101.828 30.139 101.636 29.56 101.636 28.804V23.224H100.538C100.442 23.224 100.361 23.197 100.295 23.143C100.229 23.083 100.196 22.993 100.196 22.873V22.234L101.69 22.045L102.059 19.228C102.077 19.138 102.116 19.066 102.176 19.012C102.242 18.952 102.326 18.922 102.428 18.922H103.238V22.063H105.875V23.224H103.238V28.696C103.238 29.08 103.331 29.365 103.517 29.551C103.703 29.737 103.943 29.83 104.237 29.83C104.405 29.83 104.549 29.809 104.669 29.767C104.795 29.719 104.903 29.668 104.993 29.614C105.083 29.56 105.158 29.512 105.218 29.47C105.284 29.422 105.341 29.398 105.389 29.398C105.473 29.398 105.548 29.449 105.614 29.551L106.082 30.316C105.806 30.574 105.473 30.778 105.083 30.928C104.693 31.072 104.291 31.144 103.877 31.144ZM109.041 23.71C109.329 23.086 109.683 22.6 110.103 22.252C110.523 21.898 111.036 21.721 111.642 21.721C111.834 21.721 112.017 21.742 112.191 21.784C112.371 21.826 112.53 21.892 112.668 21.982L112.551 23.179C112.515 23.329 112.425 23.404 112.281 23.404C112.197 23.404 112.074 23.386 111.912 23.35C111.75 23.314 111.567 23.296 111.363 23.296C111.075 23.296 110.817 23.338 110.589 23.422C110.367 23.506 110.166 23.632 109.986 23.8C109.812 23.962 109.653 24.166 109.509 24.412C109.371 24.652 109.245 24.928 109.131 25.24V31H107.52V21.883H108.438C108.612 21.883 108.732 21.916 108.798 21.982C108.864 22.048 108.909 22.162 108.933 22.324L109.041 23.71ZM119.8 25.447C119.8 25.075 119.746 24.736 119.638 24.43C119.536 24.118 119.383 23.851 119.179 23.629C118.981 23.401 118.738 23.227 118.45 23.107C118.162 22.981 117.835 22.918 117.469 22.918C116.701 22.918 116.092 23.143 115.642 23.593C115.198 24.037 114.922 24.655 114.814 25.447H119.8ZM121.096 29.722C120.898 29.962 120.661 30.172 120.385 30.352C120.109 30.526 119.812 30.67 119.494 30.784C119.182 30.898 118.858 30.982 118.522 31.036C118.186 31.096 117.853 31.126 117.523 31.126C116.893 31.126 116.311 31.021 115.777 30.811C115.249 30.595 114.79 30.283 114.4 29.875C114.016 29.461 113.716 28.951 113.5 28.345C113.284 27.739 113.176 27.043 113.176 26.257C113.176 25.621 113.272 25.027 113.464 24.475C113.662 23.923 113.944 23.446 114.31 23.044C114.676 22.636 115.123 22.318 115.651 22.09C116.179 21.856 116.773 21.739 117.433 21.739C117.979 21.739 118.483 21.832 118.945 22.018C119.413 22.198 119.815 22.462 120.151 22.81C120.493 23.152 120.76 23.578 120.952 24.088C121.144 24.592 121.24 25.168 121.24 25.816C121.24 26.068 121.213 26.236 121.159 26.32C121.105 26.404 121.003 26.446 120.853 26.446H114.76C114.778 27.022 114.856 27.523 114.994 27.949C115.138 28.375 115.336 28.732 115.588 29.02C115.84 29.302 116.14 29.515 116.488 29.659C116.836 29.797 117.226 29.866 117.658 29.866C118.06 29.866 118.405 29.821 118.693 29.731C118.987 29.635 119.239 29.533 119.449 29.425C119.659 29.317 119.833 29.218 119.971 29.128C120.115 29.032 120.238 28.984 120.34 28.984C120.472 28.984 120.574 29.035 120.646 29.137L121.096 29.722ZM131.638 21.739C132.304 21.739 132.904 21.85 133.438 22.072C133.972 22.294 134.428 22.609 134.806 23.017C135.184 23.425 135.472 23.92 135.67 24.502C135.874 25.078 135.976 25.723 135.976 26.437C135.976 27.157 135.874 27.805 135.67 28.381C135.472 28.957 135.184 29.449 134.806 29.857C134.428 30.265 133.972 30.58 133.438 30.802C132.904 31.018 132.304 31.126 131.638 31.126C130.966 31.126 130.36 31.018 129.82 30.802C129.286 30.58 128.83 30.265 128.452 29.857C128.074 29.449 127.783 28.957 127.579 28.381C127.381 27.805 127.282 27.157 127.282 26.437C127.282 25.723 127.381 25.078 127.579 24.502C127.783 23.92 128.074 23.425 128.452 23.017C128.83 22.609 129.286 22.294 129.82 22.072C130.36 21.85 130.966 21.739 131.638 21.739ZM131.638 29.875C132.538 29.875 133.21 29.575 133.654 28.975C134.098 28.369 134.32 27.526 134.32 26.446C134.32 25.36 134.098 24.514 133.654 23.908C133.21 23.302 132.538 22.999 131.638 22.999C131.182 22.999 130.783 23.077 130.441 23.233C130.105 23.389 129.823 23.614 129.595 23.908C129.373 24.202 129.205 24.565 129.091 24.997C128.983 25.423 128.929 25.906 128.929 26.446C128.929 27.526 129.151 28.369 129.595 28.975C130.045 29.575 130.726 29.875 131.638 29.875ZM144.207 23.098C144.597 22.684 145.029 22.354 145.503 22.108C145.977 21.862 146.523 21.739 147.141 21.739C147.639 21.739 148.077 21.823 148.455 21.991C148.839 22.153 149.157 22.387 149.409 22.693C149.667 22.993 149.862 23.356 149.994 23.782C150.126 24.208 150.192 24.679 150.192 25.195V31H148.581V25.195C148.581 24.505 148.422 23.971 148.104 23.593C147.792 23.209 147.315 23.017 146.673 23.017C146.199 23.017 145.755 23.131 145.341 23.359C144.933 23.587 144.555 23.896 144.207 24.286V31H142.596V17.743H144.207V23.098ZM157.565 26.896C156.827 26.92 156.197 26.98 155.675 27.076C155.159 27.166 154.736 27.286 154.406 27.436C154.082 27.586 153.845 27.763 153.695 27.967C153.551 28.171 153.479 28.399 153.479 28.651C153.479 28.891 153.518 29.098 153.596 29.272C153.674 29.446 153.779 29.59 153.911 29.704C154.049 29.812 154.208 29.893 154.388 29.947C154.574 29.995 154.772 30.019 154.982 30.019C155.264 30.019 155.522 29.992 155.756 29.938C155.99 29.878 156.209 29.794 156.413 29.686C156.623 29.578 156.821 29.449 157.007 29.299C157.199 29.149 157.385 28.978 157.565 28.786V26.896ZM152.39 23.17C152.894 22.684 153.437 22.321 154.019 22.081C154.601 21.841 155.246 21.721 155.954 21.721C156.464 21.721 156.917 21.805 157.313 21.973C157.709 22.141 158.042 22.375 158.312 22.675C158.582 22.975 158.786 23.338 158.924 23.764C159.062 24.19 159.131 24.658 159.131 25.168V31H158.42C158.264 31 158.144 30.976 158.06 30.928C157.976 30.874 157.91 30.772 157.862 30.622L157.682 29.758C157.442 29.98 157.208 30.178 156.98 30.352C156.752 30.52 156.512 30.664 156.26 30.784C156.008 30.898 155.738 30.985 155.45 31.045C155.168 31.111 154.853 31.144 154.505 31.144C154.151 31.144 153.818 31.096 153.506 31C153.194 30.898 152.921 30.748 152.687 30.55C152.459 30.352 152.276 30.103 152.138 29.803C152.006 29.497 151.94 29.137 151.94 28.723C151.94 28.363 152.039 28.018 152.237 27.688C152.435 27.352 152.756 27.055 153.2 26.797C153.644 26.539 154.223 26.329 154.937 26.167C155.651 25.999 156.527 25.903 157.565 25.879V25.168C157.565 24.46 157.412 23.926 157.106 23.566C156.8 23.2 156.353 23.017 155.765 23.017C155.369 23.017 155.036 23.068 154.766 23.17C154.502 23.266 154.271 23.377 154.073 23.503C153.881 23.623 153.713 23.734 153.569 23.836C153.431 23.932 153.293 23.98 153.155 23.98C153.047 23.98 152.954 23.953 152.876 23.899C152.798 23.839 152.732 23.767 152.678 23.683L152.39 23.17ZM164.739 26.545C165.063 26.545 165.348 26.5 165.594 26.41C165.84 26.32 166.047 26.194 166.215 26.032C166.383 25.87 166.509 25.678 166.593 25.456C166.677 25.228 166.719 24.979 166.719 24.709C166.719 24.151 166.548 23.707 166.206 23.377C165.87 23.047 165.381 22.882 164.739 22.882C164.091 22.882 163.596 23.047 163.254 23.377C162.918 23.707 162.75 24.151 162.75 24.709C162.75 24.979 162.792 25.228 162.876 25.456C162.966 25.678 163.095 25.87 163.263 26.032C163.431 26.194 163.638 26.32 163.884 26.41C164.13 26.5 164.415 26.545 164.739 26.545ZM167.628 31.495C167.628 31.273 167.565 31.093 167.439 30.955C167.313 30.817 167.142 30.709 166.926 30.631C166.716 30.553 166.47 30.499 166.188 30.469C165.906 30.433 165.606 30.406 165.288 30.388C164.976 30.37 164.658 30.352 164.334 30.334C164.01 30.316 163.698 30.286 163.398 30.244C163.062 30.4 162.786 30.598 162.57 30.838C162.36 31.072 162.255 31.348 162.255 31.666C162.255 31.87 162.306 32.059 162.408 32.233C162.516 32.413 162.678 32.566 162.894 32.692C163.11 32.824 163.38 32.926 163.704 32.998C164.034 33.076 164.421 33.115 164.865 33.115C165.297 33.115 165.684 33.076 166.026 32.998C166.368 32.92 166.656 32.809 166.89 32.665C167.13 32.521 167.313 32.35 167.439 32.152C167.565 31.954 167.628 31.735 167.628 31.495ZM169.257 22.243V22.837C169.257 23.035 169.131 23.161 168.879 23.215L167.844 23.35C168.048 23.746 168.15 24.184 168.15 24.664C168.15 25.108 168.063 25.513 167.889 25.879C167.721 26.239 167.487 26.548 167.187 26.806C166.887 27.064 166.527 27.262 166.107 27.4C165.687 27.538 165.231 27.607 164.739 27.607C164.313 27.607 163.911 27.556 163.533 27.454C163.341 27.574 163.194 27.703 163.092 27.841C162.99 27.973 162.939 28.108 162.939 28.246C162.939 28.462 163.026 28.627 163.2 28.741C163.38 28.849 163.614 28.927 163.902 28.975C164.19 29.023 164.517 29.053 164.883 29.065C165.255 29.077 165.633 29.098 166.017 29.128C166.407 29.152 166.785 29.197 167.151 29.263C167.523 29.329 167.853 29.437 168.141 29.587C168.429 29.737 168.66 29.944 168.834 30.208C169.014 30.472 169.104 30.814 169.104 31.234C169.104 31.624 169.005 32.002 168.807 32.368C168.615 32.734 168.336 33.058 167.97 33.34C167.604 33.628 167.154 33.856 166.62 34.024C166.092 34.198 165.495 34.285 164.829 34.285C164.163 34.285 163.581 34.219 163.083 34.087C162.585 33.955 162.171 33.778 161.841 33.556C161.511 33.334 161.262 33.076 161.094 32.782C160.932 32.494 160.851 32.191 160.851 31.873C160.851 31.423 160.992 31.042 161.274 30.73C161.556 30.418 161.943 30.169 162.435 29.983C162.165 29.863 161.949 29.704 161.787 29.506C161.631 29.302 161.553 29.029 161.553 28.687C161.553 28.555 161.577 28.42 161.625 28.282C161.673 28.138 161.745 27.997 161.841 27.859C161.943 27.715 162.066 27.58 162.21 27.454C162.354 27.328 162.522 27.217 162.714 27.121C162.264 26.869 161.913 26.536 161.661 26.122C161.409 25.702 161.283 25.216 161.283 24.664C161.283 24.22 161.367 23.818 161.535 23.458C161.709 23.092 161.949 22.783 162.255 22.531C162.561 22.273 162.924 22.075 163.344 21.937C163.77 21.799 164.235 21.73 164.739 21.73C165.135 21.73 165.504 21.775 165.846 21.865C166.188 21.949 166.5 22.075 166.782 22.243H169.257ZM175.846 26.896C175.108 26.92 174.478 26.98 173.956 27.076C173.44 27.166 173.017 27.286 172.687 27.436C172.363 27.586 172.126 27.763 171.976 27.967C171.832 28.171 171.76 28.399 171.76 28.651C171.76 28.891 171.799 29.098 171.877 29.272C171.955 29.446 172.06 29.59 172.192 29.704C172.33 29.812 172.489 29.893 172.669 29.947C172.855 29.995 173.053 30.019 173.263 30.019C173.545 30.019 173.803 29.992 174.037 29.938C174.271 29.878 174.49 29.794 174.694 29.686C174.904 29.578 175.102 29.449 175.288 29.299C175.48 29.149 175.666 28.978 175.846 28.786V26.896ZM170.671 23.17C171.175 22.684 171.718 22.321 172.3 22.081C172.882 21.841 173.527 21.721 174.235 21.721C174.745 21.721 175.198 21.805 175.594 21.973C175.99 22.141 176.323 22.375 176.593 22.675C176.863 22.975 177.067 23.338 177.205 23.764C177.343 24.19 177.412 24.658 177.412 25.168V31H176.701C176.545 31 176.425 30.976 176.341 30.928C176.257 30.874 176.191 30.772 176.143 30.622L175.963 29.758C175.723 29.98 175.489 30.178 175.261 30.352C175.033 30.52 174.793 30.664 174.541 30.784C174.289 30.898 174.019 30.985 173.731 31.045C173.449 31.111 173.134 31.144 172.786 31.144C172.432 31.144 172.099 31.096 171.787 31C171.475 30.898 171.202 30.748 170.968 30.55C170.74 30.352 170.557 30.103 170.419 29.803C170.287 29.497 170.221 29.137 170.221 28.723C170.221 28.363 170.32 28.018 170.518 27.688C170.716 27.352 171.037 27.055 171.481 26.797C171.925 26.539 172.504 26.329 173.218 26.167C173.932 25.999 174.808 25.903 175.846 25.879V25.168C175.846 24.46 175.693 23.926 175.387 23.566C175.081 23.2 174.634 23.017 174.046 23.017C173.65 23.017 173.317 23.068 173.047 23.17C172.783 23.266 172.552 23.377 172.354 23.503C172.162 23.623 171.994 23.734 171.85 23.836C171.712 23.932 171.574 23.98 171.436 23.98C171.328 23.98 171.235 23.953 171.157 23.899C171.079 23.839 171.013 23.767 170.959 23.683L170.671 23.17ZM190.784 23.503C190.736 23.569 190.688 23.62 190.64 23.656C190.592 23.692 190.526 23.71 190.442 23.71C190.352 23.71 190.253 23.674 190.145 23.602C190.037 23.524 189.902 23.44 189.74 23.35C189.584 23.26 189.389 23.179 189.155 23.107C188.927 23.029 188.645 22.99 188.309 22.99C187.859 22.99 187.463 23.071 187.121 23.233C186.779 23.389 186.491 23.617 186.257 23.917C186.029 24.217 185.855 24.58 185.735 25.006C185.621 25.432 185.564 25.909 185.564 26.437C185.564 26.989 185.627 27.481 185.753 27.913C185.879 28.339 186.056 28.699 186.284 28.993C186.518 29.281 186.797 29.503 187.121 29.659C187.451 29.809 187.82 29.884 188.228 29.884C188.618 29.884 188.939 29.839 189.191 29.749C189.443 29.653 189.65 29.548 189.812 29.434C189.98 29.32 190.118 29.218 190.226 29.128C190.34 29.032 190.451 28.984 190.559 28.984C190.691 28.984 190.793 29.035 190.865 29.137L191.315 29.722C191.117 29.968 190.892 30.178 190.64 30.352C190.388 30.526 190.115 30.673 189.821 30.793C189.533 30.907 189.23 30.991 188.912 31.045C188.594 31.099 188.27 31.126 187.94 31.126C187.37 31.126 186.839 31.021 186.347 30.811C185.861 30.601 185.438 30.298 185.078 29.902C184.718 29.5 184.436 29.008 184.232 28.426C184.028 27.844 183.926 27.181 183.926 26.437C183.926 25.759 184.019 25.132 184.205 24.556C184.397 23.98 184.673 23.485 185.033 23.071C185.399 22.651 185.846 22.324 186.374 22.09C186.908 21.856 187.52 21.739 188.21 21.739C188.852 21.739 189.416 21.844 189.902 22.054C190.394 22.258 190.829 22.549 191.207 22.927L190.784 23.503ZM194.682 17.743V31H193.08V17.743H194.682ZM198.963 21.883V31H197.361V21.883H198.963ZM199.305 19.021C199.305 19.177 199.272 19.324 199.206 19.462C199.146 19.594 199.062 19.714 198.954 19.822C198.852 19.924 198.729 20.005 198.585 20.065C198.447 20.125 198.3 20.155 198.144 20.155C197.988 20.155 197.841 20.125 197.703 20.065C197.571 20.005 197.454 19.924 197.352 19.822C197.25 19.714 197.169 19.594 197.109 19.462C197.049 19.324 197.019 19.177 197.019 19.021C197.019 18.865 197.049 18.718 197.109 18.58C197.169 18.436 197.25 18.313 197.352 18.211C197.454 18.103 197.571 18.019 197.703 17.959C197.841 17.899 197.988 17.869 198.144 17.869C198.3 17.869 198.447 17.899 198.585 17.959C198.729 18.019 198.852 18.103 198.954 18.211C199.062 18.313 199.146 18.436 199.206 18.58C199.272 18.718 199.305 18.865 199.305 19.021ZM207.931 23.503C207.883 23.569 207.835 23.62 207.787 23.656C207.739 23.692 207.673 23.71 207.589 23.71C207.499 23.71 207.4 23.674 207.292 23.602C207.184 23.524 207.049 23.44 206.887 23.35C206.731 23.26 206.536 23.179 206.302 23.107C206.074 23.029 205.792 22.99 205.456 22.99C205.006 22.99 204.61 23.071 204.268 23.233C203.926 23.389 203.638 23.617 203.404 23.917C203.176 24.217 203.002 24.58 202.882 25.006C202.768 25.432 202.711 25.909 202.711 26.437C202.711 26.989 202.774 27.481 202.9 27.913C203.026 28.339 203.203 28.699 203.431 28.993C203.665 29.281 203.944 29.503 204.268 29.659C204.598 29.809 204.967 29.884 205.375 29.884C205.765 29.884 206.086 29.839 206.338 29.749C206.59 29.653 206.797 29.548 206.959 29.434C207.127 29.32 207.265 29.218 207.373 29.128C207.487 29.032 207.598 28.984 207.706 28.984C207.838 28.984 207.94 29.035 208.012 29.137L208.462 29.722C208.264 29.968 208.039 30.178 207.787 30.352C207.535 30.526 207.262 30.673 206.968 30.793C206.68 30.907 206.377 30.991 206.059 31.045C205.741 31.099 205.417 31.126 205.087 31.126C204.517 31.126 203.986 31.021 203.494 30.811C203.008 30.601 202.585 30.298 202.225 29.902C201.865 29.5 201.583 29.008 201.379 28.426C201.175 27.844 201.073 27.181 201.073 26.437C201.073 25.759 201.166 25.132 201.352 24.556C201.544 23.98 201.82 23.485 202.18 23.071C202.546 22.651 202.993 22.324 203.521 22.09C204.055 21.856 204.667 21.739 205.357 21.739C205.999 21.739 206.563 21.844 207.049 22.054C207.541 22.258 207.976 22.549 208.354 22.927L207.931 23.503ZM219.71 26.896C218.972 26.92 218.342 26.98 217.82 27.076C217.304 27.166 216.881 27.286 216.551 27.436C216.227 27.586 215.99 27.763 215.84 27.967C215.696 28.171 215.624 28.399 215.624 28.651C215.624 28.891 215.663 29.098 215.741 29.272C215.819 29.446 215.924 29.59 216.056 29.704C216.194 29.812 216.353 29.893 216.533 29.947C216.719 29.995 216.917 30.019 217.127 30.019C217.409 30.019 217.667 29.992 217.901 29.938C218.135 29.878 218.354 29.794 218.558 29.686C218.768 29.578 218.966 29.449 219.152 29.299C219.344 29.149 219.53 28.978 219.71 28.786V26.896ZM214.535 23.17C215.039 22.684 215.582 22.321 216.164 22.081C216.746 21.841 217.391 21.721 218.099 21.721C218.609 21.721 219.062 21.805 219.458 21.973C219.854 22.141 220.187 22.375 220.457 22.675C220.727 22.975 220.931 23.338 221.069 23.764C221.207 24.19 221.276 24.658 221.276 25.168V31H220.565C220.409 31 220.289 30.976 220.205 30.928C220.121 30.874 220.055 30.772 220.007 30.622L219.827 29.758C219.587 29.98 219.353 30.178 219.125 30.352C218.897 30.52 218.657 30.664 218.405 30.784C218.153 30.898 217.883 30.985 217.595 31.045C217.313 31.111 216.998 31.144 216.65 31.144C216.296 31.144 215.963 31.096 215.651 31C215.339 30.898 215.066 30.748 214.832 30.55C214.604 30.352 214.421 30.103 214.283 29.803C214.151 29.497 214.085 29.137 214.085 28.723C214.085 28.363 214.184 28.018 214.382 27.688C214.58 27.352 214.901 27.055 215.345 26.797C215.789 26.539 216.368 26.329 217.082 26.167C217.796 25.999 218.672 25.903 219.71 25.879V25.168C219.71 24.46 219.557 23.926 219.251 23.566C218.945 23.2 218.498 23.017 217.91 23.017C217.514 23.017 217.181 23.068 216.911 23.17C216.647 23.266 216.416 23.377 216.218 23.503C216.026 23.623 215.858 23.734 215.714 23.836C215.576 23.932 215.438 23.98 215.3 23.98C215.192 23.98 215.099 23.953 215.021 23.899C214.943 23.839 214.877 23.767 214.823 23.683L214.535 23.17ZM229.648 24.043C229.36 23.659 229.039 23.386 228.685 23.224C228.331 23.056 227.938 22.972 227.506 22.972C226.66 22.972 226.009 23.275 225.553 23.881C225.097 24.487 224.869 25.351 224.869 26.473C224.869 27.067 224.92 27.577 225.022 28.003C225.124 28.423 225.274 28.771 225.472 29.047C225.67 29.317 225.913 29.515 226.201 29.641C226.489 29.767 226.816 29.83 227.182 29.83C227.71 29.83 228.169 29.71 228.559 29.47C228.955 29.23 229.318 28.891 229.648 28.453V24.043ZM231.25 21.883V34.087H229.648V29.641C229.27 30.085 228.835 30.445 228.343 30.721C227.851 30.991 227.29 31.126 226.66 31.126C226.138 31.126 225.664 31.027 225.238 30.829C224.812 30.625 224.449 30.328 224.149 29.938C223.849 29.548 223.618 29.062 223.456 28.48C223.294 27.898 223.213 27.229 223.213 26.473C223.213 25.801 223.303 25.177 223.483 24.601C223.663 24.019 223.921 23.515 224.257 23.089C224.593 22.663 225.004 22.33 225.49 22.09C225.982 21.844 226.534 21.721 227.146 21.721C227.74 21.721 228.244 21.826 228.658 22.036C229.072 22.246 229.438 22.54 229.756 22.918L229.864 22.216C229.924 21.994 230.068 21.883 230.296 21.883H231.25ZM241.268 21.883V31H240.314C240.086 31 239.942 30.889 239.882 30.667L239.756 29.686C239.36 30.124 238.916 30.478 238.424 30.748C237.932 31.012 237.368 31.144 236.732 31.144C236.234 31.144 235.793 31.063 235.409 30.901C235.031 30.733 234.713 30.499 234.455 30.199C234.197 29.899 234.002 29.536 233.87 29.11C233.744 28.684 233.681 28.213 233.681 27.697V21.883H235.283V27.697C235.283 28.387 235.439 28.921 235.751 29.299C236.069 29.677 236.552 29.866 237.2 29.866C237.674 29.866 238.115 29.755 238.523 29.533C238.937 29.305 239.318 28.993 239.666 28.597V21.883H241.268ZM245.5 21.883V31H243.889V21.883H245.5ZM247.354 17.959L245.257 20.281C245.173 20.371 245.089 20.437 245.005 20.479C244.927 20.515 244.825 20.533 244.699 20.533H243.745L245.077 18.355C245.161 18.217 245.251 18.118 245.347 18.058C245.449 17.992 245.596 17.959 245.788 17.959H247.354ZM254.322 28.804C254.616 29.2 254.937 29.479 255.285 29.641C255.633 29.803 256.023 29.884 256.455 29.884C257.307 29.884 257.961 29.581 258.417 28.975C258.873 28.369 259.101 27.505 259.101 26.383C259.101 25.789 259.047 25.279 258.939 24.853C258.837 24.427 258.687 24.079 258.489 23.809C258.291 23.533 258.048 23.332 257.76 23.206C257.472 23.08 257.145 23.017 256.779 23.017C256.257 23.017 255.798 23.137 255.402 23.377C255.012 23.617 254.652 23.956 254.322 24.394V28.804ZM254.241 23.296C254.625 22.822 255.069 22.441 255.573 22.153C256.077 21.865 256.653 21.721 257.301 21.721C257.829 21.721 258.306 21.823 258.732 22.027C259.158 22.225 259.521 22.522 259.821 22.918C260.121 23.308 260.352 23.794 260.514 24.376C260.676 24.958 260.757 25.627 260.757 26.383C260.757 27.055 260.667 27.682 260.487 28.264C260.307 28.84 260.046 29.341 259.704 29.767C259.368 30.187 258.954 30.52 258.462 30.766C257.976 31.006 257.427 31.126 256.815 31.126C256.257 31.126 255.777 31.033 255.375 30.847C254.979 30.655 254.628 30.391 254.322 30.055V34.087H252.711V21.883H253.674C253.902 21.883 254.043 21.994 254.097 22.216L254.241 23.296ZM267.733 26.896C266.995 26.92 266.365 26.98 265.843 27.076C265.327 27.166 264.904 27.286 264.574 27.436C264.25 27.586 264.013 27.763 263.863 27.967C263.719 28.171 263.647 28.399 263.647 28.651C263.647 28.891 263.686 29.098 263.764 29.272C263.842 29.446 263.947 29.59 264.079 29.704C264.217 29.812 264.376 29.893 264.556 29.947C264.742 29.995 264.94 30.019 265.15 30.019C265.432 30.019 265.69 29.992 265.924 29.938C266.158 29.878 266.377 29.794 266.581 29.686C266.791 29.578 266.989 29.449 267.175 29.299C267.367 29.149 267.553 28.978 267.733 28.786V26.896ZM262.558 23.17C263.062 22.684 263.605 22.321 264.187 22.081C264.769 21.841 265.414 21.721 266.122 21.721C266.632 21.721 267.085 21.805 267.481 21.973C267.877 22.141 268.21 22.375 268.48 22.675C268.75 22.975 268.954 23.338 269.092 23.764C269.23 24.19 269.299 24.658 269.299 25.168V31H268.588C268.432 31 268.312 30.976 268.228 30.928C268.144 30.874 268.078 30.772 268.03 30.622L267.85 29.758C267.61 29.98 267.376 30.178 267.148 30.352C266.92 30.52 266.68 30.664 266.428 30.784C266.176 30.898 265.906 30.985 265.618 31.045C265.336 31.111 265.021 31.144 264.673 31.144C264.319 31.144 263.986 31.096 263.674 31C263.362 30.898 263.089 30.748 262.855 30.55C262.627 30.352 262.444 30.103 262.306 29.803C262.174 29.497 262.108 29.137 262.108 28.723C262.108 28.363 262.207 28.018 262.405 27.688C262.603 27.352 262.924 27.055 263.368 26.797C263.812 26.539 264.391 26.329 265.105 26.167C265.819 25.999 266.695 25.903 267.733 25.879V25.168C267.733 24.46 267.58 23.926 267.274 23.566C266.968 23.2 266.521 23.017 265.933 23.017C265.537 23.017 265.204 23.068 264.934 23.17C264.67 23.266 264.439 23.377 264.241 23.503C264.049 23.623 263.881 23.734 263.737 23.836C263.599 23.932 263.461 23.98 263.323 23.98C263.215 23.98 263.122 23.953 263.044 23.899C262.966 23.839 262.9 23.767 262.846 23.683L262.558 23.17ZM273.251 23.71C273.539 23.086 273.893 22.6 274.313 22.252C274.733 21.898 275.246 21.721 275.852 21.721C276.044 21.721 276.227 21.742 276.401 21.784C276.581 21.826 276.74 21.892 276.878 21.982L276.761 23.179C276.725 23.329 276.635 23.404 276.491 23.404C276.407 23.404 276.284 23.386 276.122 23.35C275.96 23.314 275.777 23.296 275.573 23.296C275.285 23.296 275.027 23.338 274.799 23.422C274.577 23.506 274.376 23.632 274.196 23.8C274.022 23.962 273.863 24.166 273.719 24.412C273.581 24.652 273.455 24.928 273.341 25.24V31H271.73V21.883H272.648C272.822 21.883 272.942 21.916 273.008 21.982C273.074 22.048 273.119 22.162 273.143 22.324L273.251 23.71ZM283.078 26.896C282.34 26.92 281.71 26.98 281.188 27.076C280.672 27.166 280.249 27.286 279.919 27.436C279.595 27.586 279.358 27.763 279.208 27.967C279.064 28.171 278.992 28.399 278.992 28.651C278.992 28.891 279.031 29.098 279.109 29.272C279.187 29.446 279.292 29.59 279.424 29.704C279.562 29.812 279.721 29.893 279.901 29.947C280.087 29.995 280.285 30.019 280.495 30.019C280.777 30.019 281.035 29.992 281.269 29.938C281.503 29.878 281.722 29.794 281.926 29.686C282.136 29.578 282.334 29.449 282.52 29.299C282.712 29.149 282.898 28.978 283.078 28.786V26.896ZM277.903 23.17C278.407 22.684 278.95 22.321 279.532 22.081C280.114 21.841 280.759 21.721 281.467 21.721C281.977 21.721 282.43 21.805 282.826 21.973C283.222 22.141 283.555 22.375 283.825 22.675C284.095 22.975 284.299 23.338 284.437 23.764C284.575 24.19 284.644 24.658 284.644 25.168V31H283.933C283.777 31 283.657 30.976 283.573 30.928C283.489 30.874 283.423 30.772 283.375 30.622L283.195 29.758C282.955 29.98 282.721 30.178 282.493 30.352C282.265 30.52 282.025 30.664 281.773 30.784C281.521 30.898 281.251 30.985 280.963 31.045C280.681 31.111 280.366 31.144 280.018 31.144C279.664 31.144 279.331 31.096 279.019 31C278.707 30.898 278.434 30.748 278.2 30.55C277.972 30.352 277.789 30.103 277.651 29.803C277.519 29.497 277.453 29.137 277.453 28.723C277.453 28.363 277.552 28.018 277.75 27.688C277.948 27.352 278.269 27.055 278.713 26.797C279.157 26.539 279.736 26.329 280.45 26.167C281.164 25.999 282.04 25.903 283.078 25.879V25.168C283.078 24.46 282.925 23.926 282.619 23.566C282.313 23.2 281.866 23.017 281.278 23.017C280.882 23.017 280.549 23.068 280.279 23.17C280.015 23.266 279.784 23.377 279.586 23.503C279.394 23.623 279.226 23.734 279.082 23.836C278.944 23.932 278.806 23.98 278.668 23.98C278.56 23.98 278.467 23.953 278.389 23.899C278.311 23.839 278.245 23.767 278.191 23.683L277.903 23.17ZM296.982 23.386C296.91 23.518 296.799 23.584 296.649 23.584C296.559 23.584 296.457 23.551 296.343 23.485C296.229 23.419 296.088 23.347 295.92 23.269C295.758 23.185 295.563 23.11 295.335 23.044C295.107 22.972 294.837 22.936 294.525 22.936C294.255 22.936 294.012 22.972 293.796 23.044C293.58 23.11 293.394 23.203 293.238 23.323C293.088 23.443 292.971 23.584 292.887 23.746C292.809 23.902 292.77 24.073 292.77 24.259C292.77 24.493 292.836 24.688 292.968 24.844C293.106 25 293.286 25.135 293.508 25.249C293.73 25.363 293.982 25.465 294.264 25.555C294.546 25.639 294.834 25.732 295.128 25.834C295.428 25.93 295.719 26.038 296.001 26.158C296.283 26.278 296.535 26.428 296.757 26.608C296.979 26.788 297.156 27.01 297.288 27.274C297.426 27.532 297.495 27.844 297.495 28.21C297.495 28.63 297.42 29.02 297.27 29.38C297.12 29.734 296.898 30.043 296.604 30.307C296.31 30.565 295.95 30.769 295.524 30.919C295.098 31.069 294.606 31.144 294.048 31.144C293.412 31.144 292.836 31.042 292.32 30.838C291.804 30.628 291.366 30.361 291.006 30.037L291.384 29.425C291.432 29.347 291.489 29.287 291.555 29.245C291.621 29.203 291.705 29.182 291.807 29.182C291.915 29.182 292.029 29.224 292.149 29.308C292.269 29.392 292.413 29.485 292.581 29.587C292.755 29.689 292.965 29.782 293.211 29.866C293.457 29.95 293.763 29.992 294.129 29.992C294.441 29.992 294.714 29.953 294.948 29.875C295.182 29.791 295.377 29.68 295.533 29.542C295.689 29.404 295.803 29.245 295.875 29.065C295.953 28.885 295.992 28.693 295.992 28.489C295.992 28.237 295.923 28.03 295.785 27.868C295.653 27.7 295.476 27.559 295.254 27.445C295.032 27.325 294.777 27.223 294.489 27.139C294.207 27.049 293.916 26.956 293.616 26.86C293.322 26.764 293.031 26.656 292.743 26.536C292.461 26.41 292.209 26.254 291.987 26.068C291.765 25.882 291.585 25.654 291.447 25.384C291.315 25.108 291.249 24.775 291.249 24.385C291.249 24.037 291.321 23.704 291.465 23.386C291.609 23.062 291.819 22.78 292.095 22.54C292.371 22.294 292.71 22.099 293.112 21.955C293.514 21.811 293.973 21.739 294.489 21.739C295.089 21.739 295.626 21.835 296.1 22.027C296.58 22.213 296.994 22.471 297.342 22.801L296.982 23.386ZM306.947 21.883V31H305.993C305.765 31 305.621 30.889 305.561 30.667L305.435 29.686C305.039 30.124 304.595 30.478 304.103 30.748C303.611 31.012 303.047 31.144 302.411 31.144C301.913 31.144 301.472 31.063 301.088 30.901C300.71 30.733 300.392 30.499 300.134 30.199C299.876 29.899 299.681 29.536 299.549 29.11C299.423 28.684 299.36 28.213 299.36 27.697V21.883H300.962V27.697C300.962 28.387 301.118 28.921 301.43 29.299C301.748 29.677 302.231 29.866 302.879 29.866C303.353 29.866 303.794 29.755 304.202 29.533C304.616 29.305 304.997 28.993 305.345 28.597V21.883H306.947ZM311.089 28.804C311.383 29.2 311.704 29.479 312.052 29.641C312.406 29.803 312.793 29.884 313.213 29.884C314.071 29.884 314.728 29.581 315.184 28.975C315.64 28.369 315.868 27.466 315.868 26.266C315.868 25.15 315.664 24.331 315.256 23.809C314.854 23.281 314.278 23.017 313.528 23.017C313.006 23.017 312.55 23.137 312.16 23.377C311.776 23.617 311.419 23.956 311.089 24.394V28.804ZM311.089 23.197C311.473 22.753 311.905 22.399 312.385 22.135C312.871 21.871 313.429 21.739 314.059 21.739C314.593 21.739 315.073 21.841 315.499 22.045C315.931 22.249 316.297 22.546 316.597 22.936C316.897 23.32 317.125 23.788 317.281 24.34C317.443 24.892 317.524 25.513 317.524 26.203C317.524 26.941 317.434 27.613 317.254 28.219C317.074 28.825 316.813 29.344 316.471 29.776C316.135 30.202 315.724 30.535 315.238 30.775C314.752 31.009 314.206 31.126 313.6 31.126C313 31.126 312.493 31.015 312.079 30.793C311.671 30.565 311.314 30.244 311.008 29.83L310.927 30.658C310.879 30.886 310.741 31 310.513 31H309.478V17.743H311.089V23.197ZM321.233 21.883V31H319.631V21.883H321.233ZM321.575 19.021C321.575 19.177 321.542 19.324 321.476 19.462C321.416 19.594 321.332 19.714 321.224 19.822C321.122 19.924 320.999 20.005 320.855 20.065C320.717 20.125 320.57 20.155 320.414 20.155C320.258 20.155 320.111 20.125 319.973 20.065C319.841 20.005 319.724 19.924 319.622 19.822C319.52 19.714 319.439 19.594 319.379 19.462C319.319 19.324 319.289 19.177 319.289 19.021C319.289 18.865 319.319 18.718 319.379 18.58C319.439 18.436 319.52 18.313 319.622 18.211C319.724 18.103 319.841 18.019 319.973 17.959C320.111 17.899 320.258 17.869 320.414 17.869C320.57 17.869 320.717 17.899 320.855 17.959C320.999 18.019 321.122 18.103 321.224 18.211C321.332 18.313 321.416 18.436 321.476 18.58C321.542 18.718 321.575 18.865 321.575 19.021ZM325.377 23.71C325.665 23.086 326.019 22.6 326.439 22.252C326.859 21.898 327.372 21.721 327.978 21.721C328.17 21.721 328.353 21.742 328.527 21.784C328.707 21.826 328.866 21.892 329.004 21.982L328.887 23.179C328.851 23.329 328.761 23.404 328.617 23.404C328.533 23.404 328.41 23.386 328.248 23.35C328.086 23.314 327.903 23.296 327.699 23.296C327.411 23.296 327.153 23.338 326.925 23.422C326.703 23.506 326.502 23.632 326.322 23.8C326.148 23.962 325.989 24.166 325.845 24.412C325.707 24.652 325.581 24.928 325.467 25.24V31H323.856V21.883H324.774C324.948 21.883 325.068 21.916 325.134 21.982C325.2 22.048 325.245 22.162 325.269 22.324L325.377 23.71ZM339.924 23.386C339.852 23.518 339.741 23.584 339.591 23.584C339.501 23.584 339.399 23.551 339.285 23.485C339.171 23.419 339.03 23.347 338.862 23.269C338.7 23.185 338.505 23.11 338.277 23.044C338.049 22.972 337.779 22.936 337.467 22.936C337.197 22.936 336.954 22.972 336.738 23.044C336.522 23.11 336.336 23.203 336.18 23.323C336.03 23.443 335.913 23.584 335.829 23.746C335.751 23.902 335.712 24.073 335.712 24.259C335.712 24.493 335.778 24.688 335.91 24.844C336.048 25 336.228 25.135 336.45 25.249C336.672 25.363 336.924 25.465 337.206 25.555C337.488 25.639 337.776 25.732 338.07 25.834C338.37 25.93 338.661 26.038 338.943 26.158C339.225 26.278 339.477 26.428 339.699 26.608C339.921 26.788 340.098 27.01 340.23 27.274C340.368 27.532 340.437 27.844 340.437 28.21C340.437 28.63 340.362 29.02 340.212 29.38C340.062 29.734 339.84 30.043 339.546 30.307C339.252 30.565 338.892 30.769 338.466 30.919C338.04 31.069 337.548 31.144 336.99 31.144C336.354 31.144 335.778 31.042 335.262 30.838C334.746 30.628 334.308 30.361 333.948 30.037L334.326 29.425C334.374 29.347 334.431 29.287 334.497 29.245C334.563 29.203 334.647 29.182 334.749 29.182C334.857 29.182 334.971 29.224 335.091 29.308C335.211 29.392 335.355 29.485 335.523 29.587C335.697 29.689 335.907 29.782 336.153 29.866C336.399 29.95 336.705 29.992 337.071 29.992C337.383 29.992 337.656 29.953 337.89 29.875C338.124 29.791 338.319 29.68 338.475 29.542C338.631 29.404 338.745 29.245 338.817 29.065C338.895 28.885 338.934 28.693 338.934 28.489C338.934 28.237 338.865 28.03 338.727 27.868C338.595 27.7 338.418 27.559 338.196 27.445C337.974 27.325 337.719 27.223 337.431 27.139C337.149 27.049 336.858 26.956 336.558 26.86C336.264 26.764 335.973 26.656 335.685 26.536C335.403 26.41 335.151 26.254 334.929 26.068C334.707 25.882 334.527 25.654 334.389 25.384C334.257 25.108 334.191 24.775 334.191 24.385C334.191 24.037 334.263 23.704 334.407 23.386C334.551 23.062 334.761 22.78 335.037 22.54C335.313 22.294 335.652 22.099 336.054 21.955C336.456 21.811 336.915 21.739 337.431 21.739C338.031 21.739 338.568 21.835 339.042 22.027C339.522 22.213 339.936 22.471 340.284 22.801L339.924 23.386ZM349.889 21.883V31H348.935C348.707 31 348.563 30.889 348.503 30.667L348.377 29.686C347.981 30.124 347.537 30.478 347.045 30.748C346.553 31.012 345.989 31.144 345.353 31.144C344.855 31.144 344.414 31.063 344.03 30.901C343.652 30.733 343.334 30.499 343.076 30.199C342.818 29.899 342.623 29.536 342.491 29.11C342.365 28.684 342.302 28.213 342.302 27.697V21.883H343.904V27.697C343.904 28.387 344.06 28.921 344.372 29.299C344.69 29.677 345.173 29.866 345.821 29.866C346.295 29.866 346.736 29.755 347.144 29.533C347.558 29.305 347.939 28.993 348.287 28.597V21.883H349.889ZM357.73 23.386C357.658 23.518 357.547 23.584 357.397 23.584C357.307 23.584 357.205 23.551 357.091 23.485C356.977 23.419 356.836 23.347 356.668 23.269C356.506 23.185 356.311 23.11 356.083 23.044C355.855 22.972 355.585 22.936 355.273 22.936C355.003 22.936 354.76 22.972 354.544 23.044C354.328 23.11 354.142 23.203 353.986 23.323C353.836 23.443 353.719 23.584 353.635 23.746C353.557 23.902 353.518 24.073 353.518 24.259C353.518 24.493 353.584 24.688 353.716 24.844C353.854 25 354.034 25.135 354.256 25.249C354.478 25.363 354.73 25.465 355.012 25.555C355.294 25.639 355.582 25.732 355.876 25.834C356.176 25.93 356.467 26.038 356.749 26.158C357.031 26.278 357.283 26.428 357.505 26.608C357.727 26.788 357.904 27.01 358.036 27.274C358.174 27.532 358.243 27.844 358.243 28.21C358.243 28.63 358.168 29.02 358.018 29.38C357.868 29.734 357.646 30.043 357.352 30.307C357.058 30.565 356.698 30.769 356.272 30.919C355.846 31.069 355.354 31.144 354.796 31.144C354.16 31.144 353.584 31.042 353.068 30.838C352.552 30.628 352.114 30.361 351.754 30.037L352.132 29.425C352.18 29.347 352.237 29.287 352.303 29.245C352.369 29.203 352.453 29.182 352.555 29.182C352.663 29.182 352.777 29.224 352.897 29.308C353.017 29.392 353.161 29.485 353.329 29.587C353.503 29.689 353.713 29.782 353.959 29.866C354.205 29.95 354.511 29.992 354.877 29.992C355.189 29.992 355.462 29.953 355.696 29.875C355.93 29.791 356.125 29.68 356.281 29.542C356.437 29.404 356.551 29.245 356.623 29.065C356.701 28.885 356.74 28.693 356.74 28.489C356.74 28.237 356.671 28.03 356.533 27.868C356.401 27.7 356.224 27.559 356.002 27.445C355.78 27.325 355.525 27.223 355.237 27.139C354.955 27.049 354.664 26.956 354.364 26.86C354.07 26.764 353.779 26.656 353.491 26.536C353.209 26.41 352.957 26.254 352.735 26.068C352.513 25.882 352.333 25.654 352.195 25.384C352.063 25.108 351.997 24.775 351.997 24.385C351.997 24.037 352.069 23.704 352.213 23.386C352.357 23.062 352.567 22.78 352.843 22.54C353.119 22.294 353.458 22.099 353.86 21.955C354.262 21.811 354.721 21.739 355.237 21.739C355.837 21.739 356.374 21.835 356.848 22.027C357.328 22.213 357.742 22.471 358.09 22.801L357.73 23.386ZM370.735 24.052C370.435 23.65 370.111 23.371 369.763 23.215C369.415 23.053 369.025 22.972 368.593 22.972C367.747 22.972 367.096 23.275 366.64 23.881C366.184 24.487 365.956 25.351 365.956 26.473C365.956 27.067 366.007 27.577 366.109 28.003C366.211 28.423 366.361 28.771 366.559 29.047C366.757 29.317 367 29.515 367.288 29.641C367.576 29.767 367.903 29.83 368.269 29.83C368.797 29.83 369.256 29.71 369.646 29.47C370.042 29.23 370.405 28.891 370.735 28.453V24.052ZM372.337 17.743V31H371.383C371.155 31 371.011 30.889 370.951 30.667L370.807 29.56C370.417 30.028 369.973 30.406 369.475 30.694C368.977 30.982 368.401 31.126 367.747 31.126C367.225 31.126 366.751 31.027 366.325 30.829C365.899 30.625 365.536 30.328 365.236 29.938C364.936 29.548 364.705 29.062 364.543 28.48C364.381 27.898 364.3 27.229 364.3 26.473C364.3 25.801 364.39 25.177 364.57 24.601C364.75 24.019 365.008 23.515 365.344 23.089C365.68 22.663 366.091 22.33 366.577 22.09C367.069 21.844 367.621 21.721 368.233 21.721C368.791 21.721 369.268 21.817 369.664 22.009C370.066 22.195 370.423 22.456 370.735 22.792V17.743H372.337ZM378.701 21.739C379.367 21.739 379.967 21.85 380.501 22.072C381.035 22.294 381.491 22.609 381.869 23.017C382.247 23.425 382.535 23.92 382.733 24.502C382.937 25.078 383.039 25.723 383.039 26.437C383.039 27.157 382.937 27.805 382.733 28.381C382.535 28.957 382.247 29.449 381.869 29.857C381.491 30.265 381.035 30.58 380.501 30.802C379.967 31.018 379.367 31.126 378.701 31.126C378.029 31.126 377.423 31.018 376.883 30.802C376.349 30.58 375.893 30.265 375.515 29.857C375.137 29.449 374.846 28.957 374.642 28.381C374.444 27.805 374.345 27.157 374.345 26.437C374.345 25.723 374.444 25.078 374.642 24.502C374.846 23.92 375.137 23.425 375.515 23.017C375.893 22.609 376.349 22.294 376.883 22.072C377.423 21.85 378.029 21.739 378.701 21.739ZM378.701 29.875C379.601 29.875 380.273 29.575 380.717 28.975C381.161 28.369 381.383 27.526 381.383 26.446C381.383 25.36 381.161 24.514 380.717 23.908C380.273 23.302 379.601 22.999 378.701 22.999C378.245 22.999 377.846 23.077 377.504 23.233C377.168 23.389 376.886 23.614 376.658 23.908C376.436 24.202 376.268 24.565 376.154 24.997C376.046 25.423 375.992 25.906 375.992 26.446C375.992 27.526 376.214 28.369 376.658 28.975C377.108 29.575 377.789 29.875 378.701 29.875ZM391.407 23.503C391.359 23.569 391.311 23.62 391.263 23.656C391.215 23.692 391.149 23.71 391.065 23.71C390.975 23.71 390.876 23.674 390.768 23.602C390.66 23.524 390.525 23.44 390.363 23.35C390.207 23.26 390.012 23.179 389.778 23.107C389.55 23.029 389.268 22.99 388.932 22.99C388.482 22.99 388.086 23.071 387.744 23.233C387.402 23.389 387.114 23.617 386.88 23.917C386.652 24.217 386.478 24.58 386.358 25.006C386.244 25.432 386.187 25.909 386.187 26.437C386.187 26.989 386.25 27.481 386.376 27.913C386.502 28.339 386.679 28.699 386.907 28.993C387.141 29.281 387.42 29.503 387.744 29.659C388.074 29.809 388.443 29.884 388.851 29.884C389.241 29.884 389.562 29.839 389.814 29.749C390.066 29.653 390.273 29.548 390.435 29.434C390.603 29.32 390.741 29.218 390.849 29.128C390.963 29.032 391.074 28.984 391.182 28.984C391.314 28.984 391.416 29.035 391.488 29.137L391.938 29.722C391.74 29.968 391.515 30.178 391.263 30.352C391.011 30.526 390.738 30.673 390.444 30.793C390.156 30.907 389.853 30.991 389.535 31.045C389.217 31.099 388.893 31.126 388.563 31.126C387.993 31.126 387.462 31.021 386.97 30.811C386.484 30.601 386.061 30.298 385.701 29.902C385.341 29.5 385.059 29.008 384.855 28.426C384.651 27.844 384.549 27.181 384.549 26.437C384.549 25.759 384.642 25.132 384.828 24.556C385.02 23.98 385.296 23.485 385.656 23.071C386.022 22.651 386.469 22.324 386.997 22.09C387.531 21.856 388.143 21.739 388.833 21.739C389.475 21.739 390.039 21.844 390.525 22.054C391.017 22.258 391.452 22.549 391.83 22.927L391.407 23.503ZM401.145 21.883V31H400.191C399.963 31 399.819 30.889 399.759 30.667L399.633 29.686C399.237 30.124 398.793 30.478 398.301 30.748C397.809 31.012 397.245 31.144 396.609 31.144C396.111 31.144 395.67 31.063 395.286 30.901C394.908 30.733 394.59 30.499 394.332 30.199C394.074 29.899 393.879 29.536 393.747 29.11C393.621 28.684 393.558 28.213 393.558 27.697V21.883H395.16V27.697C395.16 28.387 395.316 28.921 395.628 29.299C395.946 29.677 396.429 29.866 397.077 29.866C397.551 29.866 397.992 29.755 398.4 29.533C398.814 29.305 399.195 28.993 399.543 28.597V21.883H401.145ZM403.677 31V21.883H404.64C404.868 21.883 405.009 21.994 405.063 22.216L405.18 23.152C405.516 22.738 405.894 22.399 406.314 22.135C406.734 21.871 407.22 21.739 407.772 21.739C408.384 21.739 408.879 21.91 409.257 22.252C409.641 22.594 409.917 23.056 410.085 23.638C410.217 23.308 410.385 23.023 410.589 22.783C410.799 22.543 411.033 22.345 411.291 22.189C411.549 22.033 411.822 21.919 412.11 21.847C412.404 21.775 412.701 21.739 413.001 21.739C413.481 21.739 413.907 21.817 414.279 21.973C414.657 22.123 414.975 22.345 415.233 22.639C415.497 22.933 415.698 23.296 415.836 23.728C415.974 24.154 416.043 24.643 416.043 25.195V31H414.432V25.195C414.432 24.481 414.276 23.941 413.964 23.575C413.652 23.203 413.202 23.017 412.614 23.017C412.35 23.017 412.098 23.065 411.858 23.161C411.624 23.251 411.417 23.386 411.237 23.566C411.057 23.746 410.913 23.974 410.805 24.25C410.703 24.52 410.652 24.835 410.652 25.195V31H409.041V25.195C409.041 24.463 408.894 23.917 408.6 23.557C408.306 23.197 407.877 23.017 407.313 23.017C406.917 23.017 406.551 23.125 406.215 23.341C405.879 23.551 405.57 23.839 405.288 24.205V31H403.677ZM424.57 25.447C424.57 25.075 424.516 24.736 424.408 24.43C424.306 24.118 424.153 23.851 423.949 23.629C423.751 23.401 423.508 23.227 423.22 23.107C422.932 22.981 422.605 22.918 422.239 22.918C421.471 22.918 420.862 23.143 420.412 23.593C419.968 24.037 419.692 24.655 419.584 25.447H424.57ZM425.866 29.722C425.668 29.962 425.431 30.172 425.155 30.352C424.879 30.526 424.582 30.67 424.264 30.784C423.952 30.898 423.628 30.982 423.292 31.036C422.956 31.096 422.623 31.126 422.293 31.126C421.663 31.126 421.081 31.021 420.547 30.811C420.019 30.595 419.56 30.283 419.17 29.875C418.786 29.461 418.486 28.951 418.27 28.345C418.054 27.739 417.946 27.043 417.946 26.257C417.946 25.621 418.042 25.027 418.234 24.475C418.432 23.923 418.714 23.446 419.08 23.044C419.446 22.636 419.893 22.318 420.421 22.09C420.949 21.856 421.543 21.739 422.203 21.739C422.749 21.739 423.253 21.832 423.715 22.018C424.183 22.198 424.585 22.462 424.921 22.81C425.263 23.152 425.53 23.578 425.722 24.088C425.914 24.592 426.01 25.168 426.01 25.816C426.01 26.068 425.983 26.236 425.929 26.32C425.875 26.404 425.773 26.446 425.623 26.446H419.53C419.548 27.022 419.626 27.523 419.764 27.949C419.908 28.375 420.106 28.732 420.358 29.02C420.61 29.302 420.91 29.515 421.258 29.659C421.606 29.797 421.996 29.866 422.428 29.866C422.83 29.866 423.175 29.821 423.463 29.731C423.757 29.635 424.009 29.533 424.219 29.425C424.429 29.317 424.603 29.218 424.741 29.128C424.885 29.032 425.008 28.984 425.11 28.984C425.242 28.984 425.344 29.035 425.416 29.137L425.866 29.722ZM429.481 23.206C429.679 22.984 429.889 22.783 430.111 22.603C430.333 22.423 430.567 22.27 430.813 22.144C431.065 22.012 431.329 21.913 431.605 21.847C431.887 21.775 432.19 21.739 432.514 21.739C433.012 21.739 433.45 21.823 433.828 21.991C434.212 22.153 434.53 22.387 434.782 22.693C435.04 22.993 435.235 23.356 435.367 23.782C435.499 24.208 435.565 24.679 435.565 25.195V31H433.954V25.195C433.954 24.505 433.795 23.971 433.477 23.593C433.165 23.209 432.688 23.017 432.046 23.017C431.572 23.017 431.128 23.131 430.714 23.359C430.306 23.587 429.928 23.896 429.58 24.286V31H427.969V21.883H428.932C429.16 21.883 429.301 21.994 429.355 22.216L429.481 23.206ZM440.673 31.144C439.953 31.144 439.398 30.943 439.008 30.541C438.624 30.139 438.432 29.56 438.432 28.804V23.224H437.334C437.238 23.224 437.157 23.197 437.091 23.143C437.025 23.083 436.992 22.993 436.992 22.873V22.234L438.486 22.045L438.855 19.228C438.873 19.138 438.912 19.066 438.972 19.012C439.038 18.952 439.122 18.922 439.224 18.922H440.034V22.063H442.671V23.224H440.034V28.696C440.034 29.08 440.127 29.365 440.313 29.551C440.499 29.737 440.739 29.83 441.033 29.83C441.201 29.83 441.345 29.809 441.465 29.767C441.591 29.719 441.699 29.668 441.789 29.614C441.879 29.56 441.954 29.512 442.014 29.47C442.08 29.422 442.137 29.398 442.185 29.398C442.269 29.398 442.344 29.449 442.41 29.551L442.878 30.316C442.602 30.574 442.269 30.778 441.879 30.928C441.489 31.072 441.087 31.144 440.673 31.144ZM448.107 21.739C448.773 21.739 449.373 21.85 449.907 22.072C450.441 22.294 450.897 22.609 451.275 23.017C451.653 23.425 451.941 23.92 452.139 24.502C452.343 25.078 452.445 25.723 452.445 26.437C452.445 27.157 452.343 27.805 452.139 28.381C451.941 28.957 451.653 29.449 451.275 29.857C450.897 30.265 450.441 30.58 449.907 30.802C449.373 31.018 448.773 31.126 448.107 31.126C447.435 31.126 446.829 31.018 446.289 30.802C445.755 30.58 445.299 30.265 444.921 29.857C444.543 29.449 444.252 28.957 444.048 28.381C443.85 27.805 443.751 27.157 443.751 26.437C443.751 25.723 443.85 25.078 444.048 24.502C444.252 23.92 444.543 23.425 444.921 23.017C445.299 22.609 445.755 22.294 446.289 22.072C446.829 21.85 447.435 21.739 448.107 21.739ZM448.107 29.875C449.007 29.875 449.679 29.575 450.123 28.975C450.567 28.369 450.789 27.526 450.789 26.446C450.789 25.36 450.567 24.514 450.123 23.908C449.679 23.302 449.007 22.999 448.107 22.999C447.651 22.999 447.252 23.077 446.91 23.233C446.574 23.389 446.292 23.614 446.064 23.908C445.842 24.202 445.674 24.565 445.56 24.997C445.452 25.423 445.398 25.906 445.398 26.446C445.398 27.526 445.62 28.369 446.064 28.975C446.514 29.575 447.195 29.875 448.107 29.875ZM459.777 23.386C459.705 23.518 459.594 23.584 459.444 23.584C459.354 23.584 459.252 23.551 459.138 23.485C459.024 23.419 458.883 23.347 458.715 23.269C458.553 23.185 458.358 23.11 458.13 23.044C457.902 22.972 457.632 22.936 457.32 22.936C457.05 22.936 456.807 22.972 456.591 23.044C456.375 23.11 456.189 23.203 456.033 23.323C455.883 23.443 455.766 23.584 455.682 23.746C455.604 23.902 455.565 24.073 455.565 24.259C455.565 24.493 455.631 24.688 455.763 24.844C455.901 25 456.081 25.135 456.303 25.249C456.525 25.363 456.777 25.465 457.059 25.555C457.341 25.639 457.629 25.732 457.923 25.834C458.223 25.93 458.514 26.038 458.796 26.158C459.078 26.278 459.33 26.428 459.552 26.608C459.774 26.788 459.951 27.01 460.083 27.274C460.221 27.532 460.29 27.844 460.29 28.21C460.29 28.63 460.215 29.02 460.065 29.38C459.915 29.734 459.693 30.043 459.399 30.307C459.105 30.565 458.745 30.769 458.319 30.919C457.893 31.069 457.401 31.144 456.843 31.144C456.207 31.144 455.631 31.042 455.115 30.838C454.599 30.628 454.161 30.361 453.801 30.037L454.179 29.425C454.227 29.347 454.284 29.287 454.35 29.245C454.416 29.203 454.5 29.182 454.602 29.182C454.71 29.182 454.824 29.224 454.944 29.308C455.064 29.392 455.208 29.485 455.376 29.587C455.55 29.689 455.76 29.782 456.006 29.866C456.252 29.95 456.558 29.992 456.924 29.992C457.236 29.992 457.509 29.953 457.743 29.875C457.977 29.791 458.172 29.68 458.328 29.542C458.484 29.404 458.598 29.245 458.67 29.065C458.748 28.885 458.787 28.693 458.787 28.489C458.787 28.237 458.718 28.03 458.58 27.868C458.448 27.7 458.271 27.559 458.049 27.445C457.827 27.325 457.572 27.223 457.284 27.139C457.002 27.049 456.711 26.956 456.411 26.86C456.117 26.764 455.826 26.656 455.538 26.536C455.256 26.41 455.004 26.254 454.782 26.068C454.56 25.882 454.38 25.654 454.242 25.384C454.11 25.108 454.044 24.775 454.044 24.385C454.044 24.037 454.116 23.704 454.26 23.386C454.404 23.062 454.614 22.78 454.89 22.54C455.166 22.294 455.505 22.099 455.907 21.955C456.309 21.811 456.768 21.739 457.284 21.739C457.884 21.739 458.421 21.835 458.895 22.027C459.375 22.213 459.789 22.471 460.137 22.801L459.777 23.386Z" fill="#333333"/>
</svg>
