<svg width="408" height="48" viewBox="0 0 408 48" fill="none" xmlns="http://www.w3.org/2000/svg">
<rect y="3" width="40" height="40" fill="#00B29A"/>
<path d="M18.4211 13V21.4211H10V24.5789H18.4211V33H21.5789V24.5789H30V21.4211H21.5789V13H18.4211Z" fill="white"/>
<path d="M70.177 20H68.827C68.671 20 68.545 19.961 68.449 19.883C68.353 19.805 68.281 19.706 68.233 19.586L67.027 16.472H61.24L60.034 19.586C59.992 19.694 59.92 19.79 59.818 19.874C59.716 19.958 59.59 20 59.44 20H58.09L63.247 7.103H65.02L70.177 20ZM61.726 15.212H66.541L64.516 9.965C64.384 9.641 64.255 9.236 64.129 8.75C64.063 8.996 63.997 9.224 63.931 9.434C63.871 9.638 63.811 9.818 63.751 9.974L61.726 15.212ZM71.5394 20V10.883H72.4574C72.6314 10.883 72.7514 10.916 72.8174 10.982C72.8834 11.048 72.9284 11.162 72.9524 11.324L73.0604 12.746C73.3724 12.11 73.7564 11.615 74.2124 11.261C74.6744 10.901 75.2144 10.721 75.8324 10.721C76.0844 10.721 76.3124 10.751 76.5164 10.811C76.7204 10.865 76.9094 10.943 77.0834 11.045L76.8764 12.242C76.8344 12.392 76.7414 12.467 76.5974 12.467C76.5134 12.467 76.3844 12.44 76.2104 12.386C76.0364 12.326 75.7934 12.296 75.4814 12.296C74.9234 12.296 74.4554 12.458 74.0774 12.782C73.7054 13.106 73.3934 13.577 73.1414 14.195V20H71.5394ZM78.7901 20V10.883H79.7081C79.8821 10.883 80.0021 10.916 80.0681 10.982C80.1341 11.048 80.1791 11.162 80.2031 11.324L80.3111 12.746C80.6231 12.11 81.0071 11.615 81.4631 11.261C81.9251 10.901 82.4651 10.721 83.0831 10.721C83.3351 10.721 83.5631 10.751 83.7671 10.811C83.9711 10.865 84.1601 10.943 84.3341 11.045L84.1271 12.242C84.0851 12.392 83.9921 12.467 83.8481 12.467C83.7641 12.467 83.6351 12.44 83.4611 12.386C83.2871 12.326 83.0441 12.296 82.7321 12.296C82.1741 12.296 81.7061 12.458 81.3281 12.782C80.9561 13.106 80.6441 13.577 80.3921 14.195V20H78.7901ZM92.4029 20H91.6919C91.5359 20 91.4099 19.976 91.3139 19.928C91.2179 19.88 91.1549 19.778 91.1249 19.622L90.9449 18.776C90.7049 18.992 90.4709 19.187 90.2429 19.361C90.0149 19.529 89.7749 19.673 89.5229 19.793C89.2709 19.907 89.0009 19.994 88.7129 20.054C88.4309 20.114 88.1159 20.144 87.7679 20.144C87.4139 20.144 87.0809 20.096 86.7689 20C86.4629 19.898 86.1959 19.748 85.9679 19.55C85.7399 19.352 85.5569 19.103 85.4189 18.803C85.2869 18.497 85.2209 18.137 85.2209 17.723C85.2209 17.363 85.3199 17.018 85.5179 16.688C85.7159 16.352 86.0339 16.055 86.4719 15.797C86.9159 15.539 87.4949 15.329 88.2089 15.167C88.9229 14.999 89.7959 14.903 90.8279 14.879V14.168C90.8279 13.46 90.6749 12.926 90.3689 12.566C90.0689 12.2 89.6219 12.017 89.0279 12.017C88.6379 12.017 88.3079 12.068 88.0379 12.17C87.7739 12.266 87.5429 12.377 87.3449 12.503C87.1529 12.623 86.9849 12.734 86.8409 12.836C86.7029 12.932 86.5649 12.98 86.4269 12.98C86.3189 12.98 86.2229 12.953 86.1389 12.899C86.0609 12.839 85.9979 12.767 85.9499 12.683L85.6619 12.17C86.1659 11.684 86.7089 11.321 87.2909 11.081C87.8729 10.841 88.5179 10.721 89.2259 10.721C89.7359 10.721 90.1889 10.805 90.5849 10.973C90.9809 11.141 91.3139 11.375 91.5839 11.675C91.8539 11.975 92.0579 12.338 92.1959 12.764C92.3339 13.19 92.4029 13.658 92.4029 14.168V20ZM88.2449 19.019C88.5269 19.019 88.7849 18.992 89.0189 18.938C89.2529 18.878 89.4719 18.797 89.6759 18.695C89.8859 18.587 90.0839 18.458 90.2699 18.308C90.4619 18.158 90.6479 17.987 90.8279 17.795V15.896C90.0899 15.92 89.4629 15.98 88.9469 16.076C88.4309 16.166 88.0109 16.286 87.6869 16.436C87.3629 16.586 87.1259 16.763 86.9759 16.967C86.8319 17.171 86.7599 17.399 86.7599 17.651C86.7599 17.891 86.7989 18.098 86.8769 18.272C86.9549 18.446 87.0599 18.59 87.1919 18.704C87.3239 18.812 87.4799 18.893 87.6599 18.947C87.8399 18.995 88.0349 19.019 88.2449 19.019ZM100.041 12.386C99.969 12.518 99.858 12.584 99.708 12.584C99.618 12.584 99.516 12.551 99.402 12.485C99.288 12.419 99.147 12.347 98.979 12.269C98.817 12.185 98.622 12.11 98.394 12.044C98.166 11.972 97.896 11.936 97.584 11.936C97.314 11.936 97.071 11.972 96.855 12.044C96.639 12.11 96.453 12.203 96.297 12.323C96.147 12.443 96.03 12.584 95.946 12.746C95.868 12.902 95.829 13.073 95.829 13.259C95.829 13.493 95.895 13.688 96.027 13.844C96.165 14 96.345 14.135 96.567 14.249C96.789 14.363 97.041 14.465 97.323 14.555C97.605 14.639 97.893 14.732 98.187 14.834C98.487 14.93 98.778 15.038 99.06 15.158C99.342 15.278 99.594 15.428 99.816 15.608C100.038 15.788 100.215 16.01 100.347 16.274C100.485 16.532 100.554 16.844 100.554 17.21C100.554 17.63 100.479 18.02 100.329 18.38C100.179 18.734 99.957 19.043 99.663 19.307C99.369 19.565 99.009 19.769 98.583 19.919C98.157 20.069 97.665 20.144 97.107 20.144C96.471 20.144 95.895 20.042 95.379 19.838C94.863 19.628 94.425 19.361 94.065 19.037L94.443 18.425C94.491 18.347 94.548 18.287 94.614 18.245C94.68 18.203 94.767 18.182 94.875 18.182C94.983 18.182 95.097 18.224 95.217 18.308C95.337 18.392 95.481 18.485 95.649 18.587C95.823 18.689 96.03 18.782 96.27 18.866C96.516 18.95 96.822 18.992 97.188 18.992C97.5 18.992 97.773 18.953 98.007 18.875C98.241 18.791 98.436 18.68 98.592 18.542C98.748 18.404 98.862 18.245 98.934 18.065C99.012 17.885 99.051 17.693 99.051 17.489C99.051 17.237 98.982 17.03 98.844 16.868C98.712 16.7 98.535 16.559 98.313 16.445C98.091 16.325 97.836 16.223 97.548 16.139C97.266 16.049 96.975 15.956 96.675 15.86C96.381 15.764 96.09 15.656 95.802 15.536C95.52 15.41 95.268 15.254 95.046 15.068C94.824 14.882 94.644 14.654 94.506 14.384C94.374 14.108 94.308 13.775 94.308 13.385C94.308 13.037 94.38 12.704 94.524 12.386C94.668 12.062 94.878 11.78 95.154 11.54C95.43 11.294 95.769 11.099 96.171 10.955C96.573 10.811 97.032 10.739 97.548 10.739C98.148 10.739 98.685 10.835 99.159 11.027C99.639 11.213 100.053 11.471 100.401 11.801L100.041 12.386ZM105.38 20.144C104.66 20.144 104.105 19.943 103.715 19.541C103.331 19.139 103.139 18.56 103.139 17.804V12.224H102.041C101.945 12.224 101.864 12.197 101.798 12.143C101.732 12.083 101.699 11.993 101.699 11.873V11.234L103.193 11.045L103.562 8.228C103.574 8.138 103.613 8.066 103.679 8.012C103.745 7.952 103.829 7.922 103.931 7.922H104.741V11.063H107.351V12.224H104.741V17.696C104.741 18.08 104.834 18.365 105.02 18.551C105.206 18.737 105.446 18.83 105.74 18.83C105.908 18.83 106.052 18.809 106.172 18.767C106.298 18.719 106.406 18.668 106.496 18.614C106.586 18.56 106.661 18.512 106.721 18.47C106.787 18.422 106.844 18.398 106.892 18.398C106.976 18.398 107.051 18.449 107.117 18.551L107.585 19.316C107.309 19.574 106.976 19.778 106.586 19.928C106.196 20.072 105.794 20.144 105.38 20.144ZM109.322 20V10.883H110.24C110.414 10.883 110.534 10.916 110.6 10.982C110.666 11.048 110.711 11.162 110.735 11.324L110.843 12.746C111.155 12.11 111.539 11.615 111.995 11.261C112.457 10.901 112.997 10.721 113.615 10.721C113.867 10.721 114.095 10.751 114.299 10.811C114.503 10.865 114.692 10.943 114.866 11.045L114.659 12.242C114.617 12.392 114.524 12.467 114.38 12.467C114.296 12.467 114.167 12.44 113.993 12.386C113.819 12.326 113.576 12.296 113.264 12.296C112.706 12.296 112.238 12.458 111.86 12.782C111.488 13.106 111.176 13.577 110.924 14.195V20H109.322ZM120.182 10.739C120.728 10.739 121.232 10.832 121.694 11.018C122.156 11.198 122.555 11.462 122.891 11.81C123.227 12.152 123.488 12.578 123.674 13.088C123.866 13.592 123.962 14.168 123.962 14.816C123.962 15.068 123.935 15.236 123.881 15.32C123.827 15.404 123.725 15.446 123.575 15.446H117.509C117.521 16.022 117.599 16.523 117.743 16.949C117.887 17.375 118.085 17.732 118.337 18.02C118.589 18.302 118.889 18.515 119.237 18.659C119.585 18.797 119.975 18.866 120.407 18.866C120.809 18.866 121.154 18.821 121.442 18.731C121.736 18.635 121.988 18.533 122.198 18.425C122.408 18.317 122.582 18.218 122.72 18.128C122.864 18.032 122.987 17.984 123.089 17.984C123.221 17.984 123.323 18.035 123.395 18.137L123.845 18.722C123.647 18.962 123.41 19.172 123.134 19.352C122.858 19.526 122.561 19.67 122.243 19.784C121.931 19.898 121.607 19.982 121.271 20.036C120.935 20.096 120.602 20.126 120.272 20.126C119.642 20.126 119.06 20.021 118.526 19.811C117.998 19.595 117.539 19.283 117.149 18.875C116.765 18.461 116.465 17.951 116.249 17.345C116.033 16.739 115.925 16.043 115.925 15.257C115.925 14.621 116.021 14.027 116.213 13.475C116.411 12.923 116.693 12.446 117.059 12.044C117.425 11.636 117.872 11.318 118.4 11.09C118.928 10.856 119.522 10.739 120.182 10.739ZM120.218 11.918C119.444 11.918 118.835 12.143 118.391 12.593C117.947 13.037 117.671 13.655 117.563 14.447H122.522C122.522 14.075 122.471 13.736 122.369 13.43C122.267 13.118 122.117 12.851 121.919 12.629C121.721 12.401 121.478 12.227 121.19 12.107C120.908 11.981 120.584 11.918 120.218 11.918ZM133.165 10.739C133.831 10.739 134.431 10.85 134.965 11.072C135.505 11.294 135.961 11.609 136.333 12.017C136.711 12.425 136.999 12.92 137.197 13.502C137.401 14.078 137.503 14.723 137.503 15.437C137.503 16.157 137.401 16.805 137.197 17.381C136.999 17.957 136.711 18.449 136.333 18.857C135.961 19.265 135.505 19.58 134.965 19.802C134.431 20.018 133.831 20.126 133.165 20.126C132.499 20.126 131.896 20.018 131.356 19.802C130.822 19.58 130.366 19.265 129.988 18.857C129.61 18.449 129.319 17.957 129.115 17.381C128.911 16.805 128.809 16.157 128.809 15.437C128.809 14.723 128.911 14.078 129.115 13.502C129.319 12.92 129.61 12.425 129.988 12.017C130.366 11.609 130.822 11.294 131.356 11.072C131.896 10.85 132.499 10.739 133.165 10.739ZM133.165 18.875C134.065 18.875 134.737 18.575 135.181 17.975C135.625 17.369 135.847 16.526 135.847 15.446C135.847 14.36 135.625 13.514 135.181 12.908C134.737 12.302 134.065 11.999 133.165 11.999C132.709 11.999 132.313 12.077 131.977 12.233C131.641 12.389 131.359 12.614 131.131 12.908C130.909 13.202 130.741 13.565 130.627 13.997C130.519 14.423 130.465 14.906 130.465 15.446C130.465 15.986 130.519 16.469 130.627 16.895C130.741 17.321 130.909 17.681 131.131 17.975C131.359 18.263 131.641 18.485 131.977 18.641C132.313 18.797 132.709 18.875 133.165 18.875ZM142.94 20V6.743H144.542V12.107C144.932 11.693 145.364 11.363 145.838 11.117C146.312 10.865 146.858 10.739 147.476 10.739C147.974 10.739 148.412 10.823 148.79 10.991C149.174 11.153 149.492 11.387 149.744 11.693C150.002 11.993 150.197 12.356 150.329 12.782C150.461 13.208 150.527 13.679 150.527 14.195V20H148.925V14.195C148.925 13.505 148.766 12.971 148.448 12.593C148.136 12.209 147.656 12.017 147.008 12.017C146.534 12.017 146.09 12.131 145.676 12.359C145.268 12.587 144.89 12.896 144.542 13.286V20H142.94ZM159.629 20H158.918C158.762 20 158.636 19.976 158.54 19.928C158.444 19.88 158.381 19.778 158.351 19.622L158.171 18.776C157.931 18.992 157.697 19.187 157.469 19.361C157.241 19.529 157.001 19.673 156.749 19.793C156.497 19.907 156.227 19.994 155.939 20.054C155.657 20.114 155.342 20.144 154.994 20.144C154.64 20.144 154.307 20.096 153.995 20C153.689 19.898 153.422 19.748 153.194 19.55C152.966 19.352 152.783 19.103 152.645 18.803C152.513 18.497 152.447 18.137 152.447 17.723C152.447 17.363 152.546 17.018 152.744 16.688C152.942 16.352 153.26 16.055 153.698 15.797C154.142 15.539 154.721 15.329 155.435 15.167C156.149 14.999 157.022 14.903 158.054 14.879V14.168C158.054 13.46 157.901 12.926 157.595 12.566C157.295 12.2 156.848 12.017 156.254 12.017C155.864 12.017 155.534 12.068 155.264 12.17C155 12.266 154.769 12.377 154.571 12.503C154.379 12.623 154.211 12.734 154.067 12.836C153.929 12.932 153.791 12.98 153.653 12.98C153.545 12.98 153.449 12.953 153.365 12.899C153.287 12.839 153.224 12.767 153.176 12.683L152.888 12.17C153.392 11.684 153.935 11.321 154.517 11.081C155.099 10.841 155.744 10.721 156.452 10.721C156.962 10.721 157.415 10.805 157.811 10.973C158.207 11.141 158.54 11.375 158.81 11.675C159.08 11.975 159.284 12.338 159.422 12.764C159.56 13.19 159.629 13.658 159.629 14.168V20ZM155.471 19.019C155.753 19.019 156.011 18.992 156.245 18.938C156.479 18.878 156.698 18.797 156.902 18.695C157.112 18.587 157.31 18.458 157.496 18.308C157.688 18.158 157.874 17.987 158.054 17.795V15.896C157.316 15.92 156.689 15.98 156.173 16.076C155.657 16.166 155.237 16.286 154.913 16.436C154.589 16.586 154.352 16.763 154.202 16.967C154.058 17.171 153.986 17.399 153.986 17.651C153.986 17.891 154.025 18.098 154.103 18.272C154.181 18.446 154.286 18.59 154.418 18.704C154.55 18.812 154.706 18.893 154.886 18.947C155.066 18.995 155.261 19.019 155.471 19.019ZM165.116 10.73C165.512 10.73 165.881 10.775 166.223 10.865C166.571 10.949 166.886 11.075 167.168 11.243H169.643V11.837C169.643 12.035 169.517 12.161 169.265 12.215L168.23 12.359C168.434 12.749 168.536 13.184 168.536 13.664C168.536 14.108 168.449 14.513 168.275 14.879C168.107 15.239 167.87 15.548 167.564 15.806C167.264 16.064 166.904 16.262 166.484 16.4C166.07 16.538 165.614 16.607 165.116 16.607C164.69 16.607 164.288 16.556 163.91 16.454C163.718 16.574 163.571 16.703 163.469 16.841C163.373 16.979 163.325 17.114 163.325 17.246C163.325 17.462 163.412 17.627 163.586 17.741C163.76 17.849 163.991 17.927 164.279 17.975C164.567 18.023 164.894 18.053 165.26 18.065C165.626 18.077 165.998 18.098 166.376 18.128C166.76 18.152 167.135 18.197 167.501 18.263C167.867 18.329 168.194 18.437 168.482 18.587C168.77 18.737 169.001 18.944 169.175 19.208C169.349 19.472 169.436 19.814 169.436 20.234C169.436 20.624 169.337 21.002 169.139 21.368C168.947 21.734 168.668 22.058 168.302 22.34C167.936 22.628 167.489 22.856 166.961 23.024C166.433 23.198 165.836 23.285 165.17 23.285C164.504 23.285 163.919 23.219 163.415 23.087C162.917 22.955 162.503 22.778 162.173 22.556C161.843 22.334 161.594 22.076 161.426 21.782C161.264 21.494 161.183 21.191 161.183 20.873C161.183 20.423 161.324 20.042 161.606 19.73C161.894 19.412 162.287 19.16 162.785 18.974C162.527 18.854 162.32 18.695 162.164 18.497C162.014 18.293 161.939 18.023 161.939 17.687C161.939 17.555 161.963 17.42 162.011 17.282C162.059 17.138 162.131 16.997 162.227 16.859C162.329 16.721 162.452 16.589 162.596 16.463C162.74 16.337 162.908 16.226 163.1 16.13C162.65 15.878 162.296 15.545 162.038 15.131C161.786 14.711 161.66 14.222 161.66 13.664C161.66 13.22 161.744 12.818 161.912 12.458C162.086 12.092 162.326 11.783 162.632 11.531C162.938 11.273 163.301 11.075 163.721 10.937C164.147 10.799 164.612 10.73 165.116 10.73ZM167.96 20.495C167.96 20.267 167.897 20.084 167.771 19.946C167.645 19.808 167.474 19.703 167.258 19.631C167.042 19.553 166.793 19.496 166.511 19.46C166.229 19.424 165.932 19.4 165.62 19.388C165.308 19.37 164.99 19.352 164.666 19.334C164.342 19.316 164.033 19.283 163.739 19.235C163.397 19.397 163.118 19.595 162.902 19.829C162.692 20.063 162.587 20.342 162.587 20.666C162.587 20.87 162.638 21.059 162.74 21.233C162.848 21.413 163.01 21.566 163.226 21.692C163.442 21.824 163.712 21.926 164.036 21.998C164.366 22.076 164.753 22.115 165.197 22.115C165.629 22.115 166.016 22.076 166.358 21.998C166.7 21.92 166.988 21.809 167.222 21.665C167.462 21.521 167.645 21.35 167.771 21.152C167.897 20.954 167.96 20.735 167.96 20.495ZM165.116 15.545C165.44 15.545 165.725 15.5 165.971 15.41C166.223 15.32 166.433 15.194 166.601 15.032C166.769 14.87 166.895 14.678 166.979 14.456C167.063 14.228 167.105 13.979 167.105 13.709C167.105 13.151 166.934 12.707 166.592 12.377C166.256 12.047 165.764 11.882 165.116 11.882C164.474 11.882 163.982 12.047 163.64 12.377C163.304 12.707 163.136 13.151 163.136 13.709C163.136 13.979 163.178 14.228 163.262 14.456C163.352 14.678 163.481 14.87 163.649 15.032C163.817 15.194 164.024 15.32 164.27 15.41C164.516 15.5 164.798 15.545 165.116 15.545ZM177.927 20H177.216C177.06 20 176.934 19.976 176.838 19.928C176.742 19.88 176.679 19.778 176.649 19.622L176.469 18.776C176.229 18.992 175.995 19.187 175.767 19.361C175.539 19.529 175.299 19.673 175.047 19.793C174.795 19.907 174.525 19.994 174.237 20.054C173.955 20.114 173.64 20.144 173.292 20.144C172.938 20.144 172.605 20.096 172.293 20C171.987 19.898 171.72 19.748 171.492 19.55C171.264 19.352 171.081 19.103 170.943 18.803C170.811 18.497 170.745 18.137 170.745 17.723C170.745 17.363 170.844 17.018 171.042 16.688C171.24 16.352 171.558 16.055 171.996 15.797C172.44 15.539 173.019 15.329 173.733 15.167C174.447 14.999 175.32 14.903 176.352 14.879V14.168C176.352 13.46 176.199 12.926 175.893 12.566C175.593 12.2 175.146 12.017 174.552 12.017C174.162 12.017 173.832 12.068 173.562 12.17C173.298 12.266 173.067 12.377 172.869 12.503C172.677 12.623 172.509 12.734 172.365 12.836C172.227 12.932 172.089 12.98 171.951 12.98C171.843 12.98 171.747 12.953 171.663 12.899C171.585 12.839 171.522 12.767 171.474 12.683L171.186 12.17C171.69 11.684 172.233 11.321 172.815 11.081C173.397 10.841 174.042 10.721 174.75 10.721C175.26 10.721 175.713 10.805 176.109 10.973C176.505 11.141 176.838 11.375 177.108 11.675C177.378 11.975 177.582 12.338 177.72 12.764C177.858 13.19 177.927 13.658 177.927 14.168V20ZM173.769 19.019C174.051 19.019 174.309 18.992 174.543 18.938C174.777 18.878 174.996 18.797 175.2 18.695C175.41 18.587 175.608 18.458 175.794 18.308C175.986 18.158 176.172 17.987 176.352 17.795V15.896C175.614 15.92 174.987 15.98 174.471 16.076C173.955 16.166 173.535 16.286 173.211 16.436C172.887 16.586 172.65 16.763 172.5 16.967C172.356 17.171 172.284 17.399 172.284 17.651C172.284 17.891 172.323 18.098 172.401 18.272C172.479 18.446 172.584 18.59 172.716 18.704C172.848 18.812 173.004 18.893 173.184 18.947C173.364 18.995 173.559 19.019 173.769 19.019ZM190.035 12.503C189.987 12.569 189.939 12.62 189.891 12.656C189.843 12.692 189.774 12.71 189.684 12.71C189.594 12.71 189.495 12.674 189.387 12.602C189.285 12.524 189.153 12.44 188.991 12.35C188.829 12.26 188.631 12.179 188.397 12.107C188.169 12.029 187.887 11.99 187.551 11.99C187.107 11.99 186.714 12.071 186.372 12.233C186.03 12.389 185.742 12.617 185.508 12.917C185.28 13.217 185.106 13.58 184.986 14.006C184.872 14.432 184.815 14.909 184.815 15.437C184.815 15.989 184.878 16.481 185.004 16.913C185.13 17.339 185.307 17.699 185.535 17.993C185.763 18.281 186.039 18.503 186.363 18.659C186.693 18.809 187.062 18.884 187.47 18.884C187.86 18.884 188.181 18.839 188.433 18.749C188.685 18.653 188.895 18.548 189.063 18.434C189.231 18.32 189.369 18.218 189.477 18.128C189.585 18.032 189.693 17.984 189.801 17.984C189.939 17.984 190.041 18.035 190.107 18.137L190.557 18.722C190.161 19.208 189.666 19.565 189.072 19.793C188.478 20.015 187.851 20.126 187.191 20.126C186.621 20.126 186.09 20.021 185.598 19.811C185.112 19.601 184.689 19.298 184.329 18.902C183.969 18.5 183.684 18.008 183.474 17.426C183.27 16.844 183.168 16.181 183.168 15.437C183.168 14.759 183.261 14.132 183.447 13.556C183.639 12.98 183.915 12.485 184.275 12.071C184.641 11.651 185.091 11.324 185.625 11.09C186.159 10.856 186.771 10.739 187.461 10.739C188.097 10.739 188.661 10.844 189.153 11.054C189.645 11.258 190.08 11.549 190.458 11.927L190.035 12.503ZM193.992 6.743V20H192.39V6.743H193.992ZM198.588 10.883V20H196.986V10.883H198.588ZM198.948 8.021C198.948 8.177 198.915 8.324 198.849 8.462C198.789 8.594 198.705 8.714 198.597 8.822C198.495 8.924 198.375 9.005 198.237 9.065C198.099 9.125 197.952 9.155 197.796 9.155C197.64 9.155 197.493 9.125 197.355 9.065C197.223 9.005 197.103 8.924 196.995 8.822C196.893 8.714 196.812 8.594 196.752 8.462C196.692 8.324 196.662 8.177 196.662 8.021C196.662 7.865 196.692 7.718 196.752 7.58C196.812 7.436 196.893 7.313 196.995 7.211C197.103 7.103 197.223 7.019 197.355 6.959C197.493 6.899 197.64 6.869 197.796 6.869C197.952 6.869 198.099 6.899 198.237 6.959C198.375 7.019 198.495 7.103 198.597 7.211C198.705 7.313 198.789 7.436 198.849 7.58C198.915 7.718 198.948 7.865 198.948 8.021ZM207.622 12.503C207.574 12.569 207.526 12.62 207.478 12.656C207.43 12.692 207.361 12.71 207.271 12.71C207.181 12.71 207.082 12.674 206.974 12.602C206.872 12.524 206.74 12.44 206.578 12.35C206.416 12.26 206.218 12.179 205.984 12.107C205.756 12.029 205.474 11.99 205.138 11.99C204.694 11.99 204.301 12.071 203.959 12.233C203.617 12.389 203.329 12.617 203.095 12.917C202.867 13.217 202.693 13.58 202.573 14.006C202.459 14.432 202.402 14.909 202.402 15.437C202.402 15.989 202.465 16.481 202.591 16.913C202.717 17.339 202.894 17.699 203.122 17.993C203.35 18.281 203.626 18.503 203.95 18.659C204.28 18.809 204.649 18.884 205.057 18.884C205.447 18.884 205.768 18.839 206.02 18.749C206.272 18.653 206.482 18.548 206.65 18.434C206.818 18.32 206.956 18.218 207.064 18.128C207.172 18.032 207.28 17.984 207.388 17.984C207.526 17.984 207.628 18.035 207.694 18.137L208.144 18.722C207.748 19.208 207.253 19.565 206.659 19.793C206.065 20.015 205.438 20.126 204.778 20.126C204.208 20.126 203.677 20.021 203.185 19.811C202.699 19.601 202.276 19.298 201.916 18.902C201.556 18.5 201.271 18.008 201.061 17.426C200.857 16.844 200.755 16.181 200.755 15.437C200.755 14.759 200.848 14.132 201.034 13.556C201.226 12.98 201.502 12.485 201.862 12.071C202.228 11.651 202.678 11.324 203.212 11.09C203.746 10.856 204.358 10.739 205.048 10.739C205.684 10.739 206.248 10.844 206.74 11.054C207.232 11.258 207.667 11.549 208.045 11.927L207.622 12.503ZM219.964 20H219.253C219.097 20 218.971 19.976 218.875 19.928C218.779 19.88 218.716 19.778 218.686 19.622L218.506 18.776C218.266 18.992 218.032 19.187 217.804 19.361C217.576 19.529 217.336 19.673 217.084 19.793C216.832 19.907 216.562 19.994 216.274 20.054C215.992 20.114 215.677 20.144 215.329 20.144C214.975 20.144 214.642 20.096 214.33 20C214.024 19.898 213.757 19.748 213.529 19.55C213.301 19.352 213.118 19.103 212.98 18.803C212.848 18.497 212.782 18.137 212.782 17.723C212.782 17.363 212.881 17.018 213.079 16.688C213.277 16.352 213.595 16.055 214.033 15.797C214.477 15.539 215.056 15.329 215.77 15.167C216.484 14.999 217.357 14.903 218.389 14.879V14.168C218.389 13.46 218.236 12.926 217.93 12.566C217.63 12.2 217.183 12.017 216.589 12.017C216.199 12.017 215.869 12.068 215.599 12.17C215.335 12.266 215.104 12.377 214.906 12.503C214.714 12.623 214.546 12.734 214.402 12.836C214.264 12.932 214.126 12.98 213.988 12.98C213.88 12.98 213.784 12.953 213.7 12.899C213.622 12.839 213.559 12.767 213.511 12.683L213.223 12.17C213.727 11.684 214.27 11.321 214.852 11.081C215.434 10.841 216.079 10.721 216.787 10.721C217.297 10.721 217.75 10.805 218.146 10.973C218.542 11.141 218.875 11.375 219.145 11.675C219.415 11.975 219.619 12.338 219.757 12.764C219.895 13.19 219.964 13.658 219.964 14.168V20ZM215.806 19.019C216.088 19.019 216.346 18.992 216.58 18.938C216.814 18.878 217.033 18.797 217.237 18.695C217.447 18.587 217.645 18.458 217.831 18.308C218.023 18.158 218.209 17.987 218.389 17.795V15.896C217.651 15.92 217.024 15.98 216.508 16.076C215.992 16.166 215.572 16.286 215.248 16.436C214.924 16.586 214.687 16.763 214.537 16.967C214.393 17.171 214.321 17.399 214.321 17.651C214.321 17.891 214.36 18.098 214.438 18.272C214.516 18.446 214.621 18.59 214.753 18.704C214.885 18.812 215.041 18.893 215.221 18.947C215.401 18.995 215.596 19.019 215.806 19.019ZM229.753 10.883V23.087H228.151V18.65C227.767 19.094 227.329 19.451 226.837 19.721C226.351 19.991 225.793 20.126 225.163 20.126C224.641 20.126 224.167 20.027 223.741 19.829C223.315 19.625 222.952 19.328 222.652 18.938C222.352 18.548 222.121 18.062 221.959 17.48C221.797 16.898 221.716 16.229 221.716 15.473C221.716 14.801 221.806 14.177 221.986 13.601C222.166 13.019 222.424 12.515 222.76 12.089C223.102 11.663 223.516 11.33 224.002 11.09C224.488 10.844 225.04 10.721 225.658 10.721C226.246 10.721 226.744 10.826 227.152 11.036C227.566 11.246 227.935 11.543 228.259 11.927L228.367 11.216C228.427 10.994 228.571 10.883 228.799 10.883H229.753ZM225.694 18.83C226.216 18.83 226.672 18.71 227.062 18.47C227.458 18.23 227.821 17.891 228.151 17.453V13.043C227.863 12.659 227.542 12.386 227.188 12.224C226.834 12.056 226.444 11.972 226.018 11.972C225.166 11.972 224.512 12.275 224.056 12.881C223.6 13.487 223.372 14.351 223.372 15.473C223.372 16.067 223.423 16.577 223.525 17.003C223.627 17.423 223.777 17.771 223.975 18.047C224.173 18.317 224.416 18.515 224.704 18.641C224.992 18.767 225.322 18.83 225.694 18.83ZM233.813 10.883V16.697C233.813 17.387 233.972 17.921 234.29 18.299C234.608 18.677 235.088 18.866 235.73 18.866C236.198 18.866 236.639 18.755 237.053 18.533C237.467 18.311 237.848 18.002 238.196 17.606V10.883H239.798V20H238.844C238.616 20 238.472 19.889 238.412 19.667L238.286 18.686C237.89 19.124 237.446 19.478 236.954 19.748C236.462 20.012 235.898 20.144 235.262 20.144C234.764 20.144 234.323 20.063 233.939 19.901C233.561 19.733 233.243 19.499 232.985 19.199C232.727 18.899 232.532 18.536 232.4 18.11C232.274 17.684 232.211 17.213 232.211 16.697V10.883H233.813ZM244.202 10.883V20H242.6V10.883H244.202ZM246.074 6.959L243.977 9.281C243.893 9.371 243.809 9.437 243.725 9.479C243.647 9.515 243.545 9.533 243.419 9.533H242.465L243.797 7.355C243.881 7.217 243.971 7.118 244.067 7.058C244.169 6.992 244.316 6.959 244.508 6.959H246.074ZM250.488 23.087V10.883H251.442C251.67 10.883 251.814 10.994 251.874 11.216L252.009 12.296C252.399 11.822 252.843 11.441 253.341 11.153C253.845 10.865 254.424 10.721 255.078 10.721C255.6 10.721 256.074 10.823 256.5 11.027C256.926 11.225 257.289 11.522 257.589 11.918C257.889 12.308 258.12 12.794 258.282 13.376C258.444 13.958 258.525 14.627 258.525 15.383C258.525 16.055 258.435 16.682 258.255 17.264C258.075 17.84 257.817 18.341 257.481 18.767C257.145 19.187 256.731 19.52 256.239 19.766C255.753 20.006 255.204 20.126 254.592 20.126C254.028 20.126 253.545 20.033 253.143 19.847C252.747 19.661 252.396 19.397 252.09 19.055V23.087H250.488ZM254.547 12.017C254.025 12.017 253.566 12.137 253.17 12.377C252.78 12.617 252.42 12.956 252.09 13.394V17.804C252.384 18.2 252.705 18.479 253.053 18.641C253.407 18.803 253.8 18.884 254.232 18.884C255.078 18.884 255.729 18.581 256.185 17.975C256.641 17.369 256.869 16.505 256.869 15.383C256.869 14.789 256.815 14.279 256.707 13.853C256.605 13.427 256.455 13.079 256.257 12.809C256.059 12.533 255.816 12.332 255.528 12.206C255.24 12.08 254.913 12.017 254.547 12.017ZM267.107 20H266.396C266.24 20 266.114 19.976 266.018 19.928C265.922 19.88 265.859 19.778 265.829 19.622L265.649 18.776C265.409 18.992 265.175 19.187 264.947 19.361C264.719 19.529 264.479 19.673 264.227 19.793C263.975 19.907 263.705 19.994 263.417 20.054C263.135 20.114 262.82 20.144 262.472 20.144C262.118 20.144 261.785 20.096 261.473 20C261.167 19.898 260.9 19.748 260.672 19.55C260.444 19.352 260.261 19.103 260.123 18.803C259.991 18.497 259.925 18.137 259.925 17.723C259.925 17.363 260.024 17.018 260.222 16.688C260.42 16.352 260.738 16.055 261.176 15.797C261.62 15.539 262.199 15.329 262.913 15.167C263.627 14.999 264.5 14.903 265.532 14.879V14.168C265.532 13.46 265.379 12.926 265.073 12.566C264.773 12.2 264.326 12.017 263.732 12.017C263.342 12.017 263.012 12.068 262.742 12.17C262.478 12.266 262.247 12.377 262.049 12.503C261.857 12.623 261.689 12.734 261.545 12.836C261.407 12.932 261.269 12.98 261.131 12.98C261.023 12.98 260.927 12.953 260.843 12.899C260.765 12.839 260.702 12.767 260.654 12.683L260.366 12.17C260.87 11.684 261.413 11.321 261.995 11.081C262.577 10.841 263.222 10.721 263.93 10.721C264.44 10.721 264.893 10.805 265.289 10.973C265.685 11.141 266.018 11.375 266.288 11.675C266.558 11.975 266.762 12.338 266.9 12.764C267.038 13.19 267.107 13.658 267.107 14.168V20ZM262.949 19.019C263.231 19.019 263.489 18.992 263.723 18.938C263.957 18.878 264.176 18.797 264.38 18.695C264.59 18.587 264.788 18.458 264.974 18.308C265.166 18.158 265.352 17.987 265.532 17.795V15.896C264.794 15.92 264.167 15.98 263.651 16.076C263.135 16.166 262.715 16.286 262.391 16.436C262.067 16.586 261.83 16.763 261.68 16.967C261.536 17.171 261.464 17.399 261.464 17.651C261.464 17.891 261.503 18.098 261.581 18.272C261.659 18.446 261.764 18.59 261.896 18.704C262.028 18.812 262.184 18.893 262.364 18.947C262.544 18.995 262.739 19.019 262.949 19.019ZM269.525 20V10.883H270.443C270.617 10.883 270.737 10.916 270.803 10.982C270.869 11.048 270.914 11.162 270.938 11.324L271.046 12.746C271.358 12.11 271.742 11.615 272.198 11.261C272.66 10.901 273.2 10.721 273.818 10.721C274.07 10.721 274.298 10.751 274.502 10.811C274.706 10.865 274.895 10.943 275.069 11.045L274.862 12.242C274.82 12.392 274.727 12.467 274.583 12.467C274.499 12.467 274.37 12.44 274.196 12.386C274.022 12.326 273.779 12.296 273.467 12.296C272.909 12.296 272.441 12.458 272.063 12.782C271.691 13.106 271.379 13.577 271.127 14.195V20H269.525ZM283.138 20H282.427C282.271 20 282.145 19.976 282.049 19.928C281.953 19.88 281.89 19.778 281.86 19.622L281.68 18.776C281.44 18.992 281.206 19.187 280.978 19.361C280.75 19.529 280.51 19.673 280.258 19.793C280.006 19.907 279.736 19.994 279.448 20.054C279.166 20.114 278.851 20.144 278.503 20.144C278.149 20.144 277.816 20.096 277.504 20C277.198 19.898 276.931 19.748 276.703 19.55C276.475 19.352 276.292 19.103 276.154 18.803C276.022 18.497 275.956 18.137 275.956 17.723C275.956 17.363 276.055 17.018 276.253 16.688C276.451 16.352 276.769 16.055 277.207 15.797C277.651 15.539 278.23 15.329 278.944 15.167C279.658 14.999 280.531 14.903 281.563 14.879V14.168C281.563 13.46 281.41 12.926 281.104 12.566C280.804 12.2 280.357 12.017 279.763 12.017C279.373 12.017 279.043 12.068 278.773 12.17C278.509 12.266 278.278 12.377 278.08 12.503C277.888 12.623 277.72 12.734 277.576 12.836C277.438 12.932 277.3 12.98 277.162 12.98C277.054 12.98 276.958 12.953 276.874 12.899C276.796 12.839 276.733 12.767 276.685 12.683L276.397 12.17C276.901 11.684 277.444 11.321 278.026 11.081C278.608 10.841 279.253 10.721 279.961 10.721C280.471 10.721 280.924 10.805 281.32 10.973C281.716 11.141 282.049 11.375 282.319 11.675C282.589 11.975 282.793 12.338 282.931 12.764C283.069 13.19 283.138 13.658 283.138 14.168V20ZM278.98 19.019C279.262 19.019 279.52 18.992 279.754 18.938C279.988 18.878 280.207 18.797 280.411 18.695C280.621 18.587 280.819 18.458 281.005 18.308C281.197 18.158 281.383 17.987 281.563 17.795V15.896C280.825 15.92 280.198 15.98 279.682 16.076C279.166 16.166 278.746 16.286 278.422 16.436C278.098 16.586 277.861 16.763 277.711 16.967C277.567 17.171 277.495 17.399 277.495 17.651C277.495 17.891 277.534 18.098 277.612 18.272C277.69 18.446 277.795 18.59 277.927 18.704C278.059 18.812 278.215 18.893 278.395 18.947C278.575 18.995 278.77 19.019 278.98 19.019ZM294.247 12.386C294.175 12.518 294.064 12.584 293.914 12.584C293.824 12.584 293.722 12.551 293.608 12.485C293.494 12.419 293.353 12.347 293.185 12.269C293.023 12.185 292.828 12.11 292.6 12.044C292.372 11.972 292.102 11.936 291.79 11.936C291.52 11.936 291.277 11.972 291.061 12.044C290.845 12.11 290.659 12.203 290.503 12.323C290.353 12.443 290.236 12.584 290.152 12.746C290.074 12.902 290.035 13.073 290.035 13.259C290.035 13.493 290.101 13.688 290.233 13.844C290.371 14 290.551 14.135 290.773 14.249C290.995 14.363 291.247 14.465 291.529 14.555C291.811 14.639 292.099 14.732 292.393 14.834C292.693 14.93 292.984 15.038 293.266 15.158C293.548 15.278 293.8 15.428 294.022 15.608C294.244 15.788 294.421 16.01 294.553 16.274C294.691 16.532 294.76 16.844 294.76 17.21C294.76 17.63 294.685 18.02 294.535 18.38C294.385 18.734 294.163 19.043 293.869 19.307C293.575 19.565 293.215 19.769 292.789 19.919C292.363 20.069 291.871 20.144 291.313 20.144C290.677 20.144 290.101 20.042 289.585 19.838C289.069 19.628 288.631 19.361 288.271 19.037L288.649 18.425C288.697 18.347 288.754 18.287 288.82 18.245C288.886 18.203 288.973 18.182 289.081 18.182C289.189 18.182 289.303 18.224 289.423 18.308C289.543 18.392 289.687 18.485 289.855 18.587C290.029 18.689 290.236 18.782 290.476 18.866C290.722 18.95 291.028 18.992 291.394 18.992C291.706 18.992 291.979 18.953 292.213 18.875C292.447 18.791 292.642 18.68 292.798 18.542C292.954 18.404 293.068 18.245 293.14 18.065C293.218 17.885 293.257 17.693 293.257 17.489C293.257 17.237 293.188 17.03 293.05 16.868C292.918 16.7 292.741 16.559 292.519 16.445C292.297 16.325 292.042 16.223 291.754 16.139C291.472 16.049 291.181 15.956 290.881 15.86C290.587 15.764 290.296 15.656 290.008 15.536C289.726 15.41 289.474 15.254 289.252 15.068C289.03 14.882 288.85 14.654 288.712 14.384C288.58 14.108 288.514 13.775 288.514 13.385C288.514 13.037 288.586 12.704 288.73 12.386C288.874 12.062 289.084 11.78 289.36 11.54C289.636 11.294 289.975 11.099 290.377 10.955C290.779 10.811 291.238 10.739 291.754 10.739C292.354 10.739 292.891 10.835 293.365 11.027C293.845 11.213 294.259 11.471 294.607 11.801L294.247 12.386ZM298.209 10.883V16.697C298.209 17.387 298.368 17.921 298.686 18.299C299.004 18.677 299.484 18.866 300.126 18.866C300.594 18.866 301.035 18.755 301.449 18.533C301.863 18.311 302.244 18.002 302.592 17.606V10.883H304.194V20H303.24C303.012 20 302.868 19.889 302.808 19.667L302.682 18.686C302.286 19.124 301.842 19.478 301.35 19.748C300.858 20.012 300.294 20.144 299.658 20.144C299.16 20.144 298.719 20.063 298.335 19.901C297.957 19.733 297.639 19.499 297.381 19.199C297.123 18.899 296.928 18.536 296.796 18.11C296.67 17.684 296.607 17.213 296.607 16.697V10.883H298.209ZM306.87 20V6.743H308.481V12.197C308.859 11.759 309.291 11.408 309.777 11.144C310.269 10.874 310.83 10.739 311.46 10.739C311.988 10.739 312.465 10.838 312.891 11.036C313.317 11.234 313.68 11.531 313.98 11.927C314.28 12.317 314.511 12.803 314.673 13.385C314.835 13.961 314.916 14.627 314.916 15.383C314.916 16.055 314.826 16.682 314.646 17.264C314.466 17.84 314.205 18.341 313.863 18.767C313.527 19.187 313.113 19.52 312.621 19.766C312.135 20.006 311.586 20.126 310.974 20.126C310.386 20.126 309.885 20.012 309.471 19.784C309.063 19.556 308.706 19.238 308.4 18.83L308.319 19.658C308.271 19.886 308.133 20 307.905 20H306.87ZM310.938 12.017C310.416 12.017 309.957 12.137 309.561 12.377C309.171 12.617 308.811 12.956 308.481 13.394V17.804C308.769 18.2 309.087 18.479 309.435 18.641C309.789 18.803 310.182 18.884 310.614 18.884C311.466 18.884 312.12 18.581 312.576 17.975C313.032 17.369 313.26 16.505 313.26 15.383C313.26 14.789 313.206 14.279 313.098 13.853C312.996 13.427 312.846 13.079 312.648 12.809C312.45 12.533 312.207 12.332 311.919 12.206C311.631 12.08 311.304 12.017 310.938 12.017ZM318.644 10.883V20H317.042V10.883H318.644ZM319.004 8.021C319.004 8.177 318.971 8.324 318.905 8.462C318.845 8.594 318.761 8.714 318.653 8.822C318.551 8.924 318.431 9.005 318.293 9.065C318.155 9.125 318.008 9.155 317.852 9.155C317.696 9.155 317.549 9.125 317.411 9.065C317.279 9.005 317.159 8.924 317.051 8.822C316.949 8.714 316.868 8.594 316.808 8.462C316.748 8.324 316.718 8.177 316.718 8.021C316.718 7.865 316.748 7.718 316.808 7.58C316.868 7.436 316.949 7.313 317.051 7.211C317.159 7.103 317.279 7.019 317.411 6.959C317.549 6.899 317.696 6.869 317.852 6.869C318.008 6.869 318.155 6.899 318.293 6.959C318.431 7.019 318.551 7.103 318.653 7.211C318.761 7.313 318.845 7.436 318.905 7.58C318.971 7.718 319.004 7.865 319.004 8.021ZM321.458 20V10.883H322.376C322.55 10.883 322.67 10.916 322.736 10.982C322.802 11.048 322.847 11.162 322.871 11.324L322.979 12.746C323.291 12.11 323.675 11.615 324.131 11.261C324.593 10.901 325.133 10.721 325.751 10.721C326.003 10.721 326.231 10.751 326.435 10.811C326.639 10.865 326.828 10.943 327.002 11.045L326.795 12.242C326.753 12.392 326.66 12.467 326.516 12.467C326.432 12.467 326.303 12.44 326.129 12.386C325.955 12.326 325.712 12.296 325.4 12.296C324.842 12.296 324.374 12.458 323.996 12.782C323.624 13.106 323.312 13.577 323.06 14.195V20H321.458ZM335.789 10.739C336.335 10.739 336.839 10.832 337.301 11.018C337.763 11.198 338.162 11.462 338.498 11.81C338.834 12.152 339.095 12.578 339.281 13.088C339.473 13.592 339.569 14.168 339.569 14.816C339.569 15.068 339.542 15.236 339.488 15.32C339.434 15.404 339.332 15.446 339.182 15.446H333.116C333.128 16.022 333.206 16.523 333.35 16.949C333.494 17.375 333.692 17.732 333.944 18.02C334.196 18.302 334.496 18.515 334.844 18.659C335.192 18.797 335.582 18.866 336.014 18.866C336.416 18.866 336.761 18.821 337.049 18.731C337.343 18.635 337.595 18.533 337.805 18.425C338.015 18.317 338.189 18.218 338.327 18.128C338.471 18.032 338.594 17.984 338.696 17.984C338.828 17.984 338.93 18.035 339.002 18.137L339.452 18.722C339.254 18.962 339.017 19.172 338.741 19.352C338.465 19.526 338.168 19.67 337.85 19.784C337.538 19.898 337.214 19.982 336.878 20.036C336.542 20.096 336.209 20.126 335.879 20.126C335.249 20.126 334.667 20.021 334.133 19.811C333.605 19.595 333.146 19.283 332.756 18.875C332.372 18.461 332.072 17.951 331.856 17.345C331.64 16.739 331.532 16.043 331.532 15.257C331.532 14.621 331.628 14.027 331.82 13.475C332.018 12.923 332.3 12.446 332.666 12.044C333.032 11.636 333.479 11.318 334.007 11.09C334.535 10.856 335.129 10.739 335.789 10.739ZM335.825 11.918C335.051 11.918 334.442 12.143 333.998 12.593C333.554 13.037 333.278 13.655 333.17 14.447H338.129C338.129 14.075 338.078 13.736 337.976 13.43C337.874 13.118 337.724 12.851 337.526 12.629C337.328 12.401 337.085 12.227 336.797 12.107C336.515 11.981 336.191 11.918 335.825 11.918ZM343.393 6.743V20H341.791V6.743H343.393ZM67.522 28.986V30.912H61.753V34.764H66.622V36.699H61.753V42H59.314V28.986H67.522ZM72.6483 32.622C73.3383 32.622 73.9623 32.733 74.5203 32.955C75.0843 33.177 75.5643 33.492 75.9603 33.9C76.3563 34.308 76.6623 34.806 76.8783 35.394C77.0943 35.982 77.2023 36.639 77.2023 37.365C77.2023 38.097 77.0943 38.757 76.8783 39.345C76.6623 39.933 76.3563 40.434 75.9603 40.848C75.5643 41.262 75.0843 41.58 74.5203 41.802C73.9623 42.024 73.3383 42.135 72.6483 42.135C71.9583 42.135 71.3313 42.024 70.7673 41.802C70.2033 41.58 69.7203 41.262 69.3183 40.848C68.9223 40.434 68.6133 39.933 68.3913 39.345C68.1753 38.757 68.0673 38.097 68.0673 37.365C68.0673 36.639 68.1753 35.982 68.3913 35.394C68.6133 34.806 68.9223 34.308 69.3183 33.9C69.7203 33.492 70.2033 33.177 70.7673 32.955C71.3313 32.733 71.9583 32.622 72.6483 32.622ZM72.6483 40.425C73.4163 40.425 73.9833 40.167 74.3493 39.651C74.7213 39.135 74.9073 38.379 74.9073 37.383C74.9073 36.387 74.7213 35.628 74.3493 35.106C73.9833 34.584 73.4163 34.323 72.6483 34.323C71.8683 34.323 71.2923 34.587 70.9203 35.115C70.5483 35.637 70.3623 36.393 70.3623 37.383C70.3623 38.373 70.5483 39.129 70.9203 39.651C71.2923 40.167 71.8683 40.425 72.6483 40.425ZM78.9278 42V32.766H80.2328C80.4608 32.766 80.6198 32.808 80.7098 32.892C80.7998 32.976 80.8598 33.12 80.8898 33.324L81.0248 34.44C81.3548 33.87 81.7418 33.42 82.1858 33.09C82.6298 32.76 83.1278 32.595 83.6798 32.595C84.1358 32.595 84.5138 32.7 84.8138 32.91L84.5258 34.575C84.5078 34.683 84.4688 34.761 84.4088 34.809C84.3488 34.851 84.2678 34.872 84.1658 34.872C84.0758 34.872 83.9528 34.851 83.7968 34.809C83.6408 34.767 83.4338 34.746 83.1758 34.746C82.7138 34.746 82.3178 34.875 81.9878 35.133C81.6578 35.385 81.3788 35.757 81.1508 36.249V42H78.9278ZM86.2665 42V32.766H87.6255C87.9135 32.766 88.1025 32.901 88.1925 33.171L88.3365 33.855C88.4985 33.675 88.6665 33.51 88.8405 33.36C89.0205 33.21 89.2095 33.081 89.4075 32.973C89.6115 32.865 89.8275 32.781 90.0555 32.721C90.2895 32.655 90.5445 32.622 90.8205 32.622C91.4025 32.622 91.8795 32.781 92.2515 33.099C92.6295 33.411 92.9115 33.828 93.0975 34.35C93.2415 34.044 93.4215 33.783 93.6375 33.567C93.8535 33.345 94.0905 33.165 94.3485 33.027C94.6065 32.889 94.8795 32.787 95.1675 32.721C95.4615 32.655 95.7555 32.622 96.0495 32.622C96.5595 32.622 97.0125 32.7 97.4085 32.856C97.8045 33.012 98.1375 33.24 98.4075 33.54C98.6775 33.84 98.8815 34.206 99.0195 34.638C99.1635 35.07 99.2355 35.565 99.2355 36.123V42H97.0125V36.123C97.0125 35.535 96.8835 35.094 96.6255 34.8C96.3675 34.5 95.9895 34.35 95.4915 34.35C95.2635 34.35 95.0505 34.389 94.8525 34.467C94.6605 34.545 94.4895 34.659 94.3395 34.809C94.1955 34.953 94.0815 35.136 93.9975 35.358C93.9135 35.58 93.8715 35.835 93.8715 36.123V42H91.6395V36.123C91.6395 35.505 91.5135 35.055 91.2615 34.773C91.0155 34.491 90.6495 34.35 90.1635 34.35C89.8455 34.35 89.5455 34.431 89.2635 34.593C88.9875 34.749 88.7295 34.965 88.4895 35.241V42H86.2665ZM103.444 32.766V38.634C103.444 39.198 103.573 39.636 103.831 39.948C104.095 40.254 104.488 40.407 105.01 40.407C105.394 40.407 105.754 40.323 106.09 40.155C106.426 39.981 106.744 39.744 107.044 39.444V32.766H109.267V42H107.908C107.62 42 107.431 41.865 107.341 41.595L107.188 40.857C106.996 41.049 106.798 41.226 106.594 41.388C106.39 41.544 106.171 41.679 105.937 41.793C105.709 41.901 105.46 41.985 105.19 42.045C104.926 42.111 104.641 42.144 104.335 42.144C103.831 42.144 103.384 42.06 102.994 41.892C102.61 41.718 102.286 41.475 102.022 41.163C101.758 40.851 101.557 40.482 101.419 40.056C101.287 39.624 101.221 39.15 101.221 38.634V32.766H103.444ZM113.998 28.626V42H111.775V28.626H113.998ZM123.745 42H122.746C122.536 42 122.371 41.97 122.251 41.91C122.131 41.844 122.041 41.715 121.981 41.523L121.783 40.866C121.549 41.076 121.318 41.262 121.09 41.424C120.868 41.58 120.637 41.712 120.397 41.82C120.157 41.928 119.902 42.009 119.632 42.063C119.362 42.117 119.062 42.144 118.732 42.144C118.342 42.144 117.982 42.093 117.652 41.991C117.322 41.883 117.037 41.724 116.797 41.514C116.563 41.304 116.38 41.043 116.248 40.731C116.116 40.419 116.05 40.056 116.05 39.642C116.05 39.294 116.14 38.952 116.32 38.616C116.506 38.274 116.812 37.968 117.238 37.698C117.664 37.422 118.231 37.194 118.939 37.014C119.647 36.834 120.526 36.732 121.576 36.708V36.168C121.576 35.55 121.444 35.094 121.18 34.8C120.922 34.5 120.544 34.35 120.046 34.35C119.686 34.35 119.386 34.392 119.146 34.476C118.906 34.56 118.696 34.656 118.516 34.764C118.342 34.866 118.18 34.959 118.03 35.043C117.88 35.127 117.715 35.169 117.535 35.169C117.385 35.169 117.256 35.13 117.148 35.052C117.04 34.974 116.953 34.878 116.887 34.764L116.482 34.053C117.544 33.081 118.825 32.595 120.325 32.595C120.865 32.595 121.345 32.685 121.765 32.865C122.191 33.039 122.551 33.285 122.845 33.603C123.139 33.915 123.361 34.29 123.511 34.728C123.667 35.166 123.745 35.646 123.745 36.168V42ZM119.425 40.614C119.653 40.614 119.863 40.593 120.055 40.551C120.247 40.509 120.427 40.446 120.595 40.362C120.769 40.278 120.934 40.176 121.09 40.056C121.252 39.93 121.414 39.783 121.576 39.615V38.058C120.928 38.088 120.385 38.145 119.947 38.229C119.515 38.307 119.167 38.409 118.903 38.535C118.639 38.661 118.45 38.808 118.336 38.976C118.228 39.144 118.174 39.327 118.174 39.525C118.174 39.915 118.288 40.194 118.516 40.362C118.75 40.53 119.053 40.614 119.425 40.614ZM125.922 42V32.766H127.227C127.455 32.766 127.614 32.808 127.704 32.892C127.794 32.976 127.854 33.12 127.884 33.324L128.019 34.44C128.349 33.87 128.736 33.42 129.18 33.09C129.624 32.76 130.122 32.595 130.674 32.595C131.13 32.595 131.508 32.7 131.808 32.91L131.52 34.575C131.502 34.683 131.463 34.761 131.403 34.809C131.343 34.851 131.262 34.872 131.16 34.872C131.07 34.872 130.947 34.851 130.791 34.809C130.635 34.767 130.428 34.746 130.17 34.746C129.708 34.746 129.312 34.875 128.982 35.133C128.652 35.385 128.373 35.757 128.145 36.249V42H125.922ZM135.628 32.766V42H133.405V32.766H135.628ZM135.961 30.075C135.961 30.267 135.922 30.447 135.844 30.615C135.766 30.783 135.661 30.93 135.529 31.056C135.403 31.182 135.253 31.284 135.079 31.362C134.905 31.434 134.719 31.47 134.521 31.47C134.329 31.47 134.146 31.434 133.972 31.362C133.804 31.284 133.657 31.182 133.531 31.056C133.405 30.93 133.303 30.783 133.225 30.615C133.153 30.447 133.117 30.267 133.117 30.075C133.117 29.877 133.153 29.691 133.225 29.517C133.303 29.343 133.405 29.193 133.531 29.067C133.657 28.941 133.804 28.842 133.972 28.77C134.146 28.692 134.329 28.653 134.521 28.653C134.719 28.653 134.905 28.692 135.079 28.77C135.253 28.842 135.403 28.941 135.529 29.067C135.661 29.193 135.766 29.343 135.844 29.517C135.922 29.691 135.961 29.877 135.961 30.075ZM142.08 32.622C142.77 32.622 143.394 32.733 143.952 32.955C144.516 33.177 144.996 33.492 145.392 33.9C145.788 34.308 146.094 34.806 146.31 35.394C146.526 35.982 146.634 36.639 146.634 37.365C146.634 38.097 146.526 38.757 146.31 39.345C146.094 39.933 145.788 40.434 145.392 40.848C144.996 41.262 144.516 41.58 143.952 41.802C143.394 42.024 142.77 42.135 142.08 42.135C141.39 42.135 140.763 42.024 140.199 41.802C139.635 41.58 139.152 41.262 138.75 40.848C138.354 40.434 138.045 39.933 137.823 39.345C137.607 38.757 137.499 38.097 137.499 37.365C137.499 36.639 137.607 35.982 137.823 35.394C138.045 34.806 138.354 34.308 138.75 33.9C139.152 33.492 139.635 33.177 140.199 32.955C140.763 32.733 141.39 32.622 142.08 32.622ZM142.08 40.425C142.848 40.425 143.415 40.167 143.781 39.651C144.153 39.135 144.339 38.379 144.339 37.383C144.339 36.387 144.153 35.628 143.781 35.106C143.415 34.584 142.848 34.323 142.08 34.323C141.3 34.323 140.724 34.587 140.352 35.115C139.98 35.637 139.794 36.393 139.794 37.383C139.794 38.373 139.98 39.129 140.352 39.651C140.724 40.167 141.3 40.425 142.08 40.425ZM161.128 28.986V30.975H157.213V42H154.792V30.975H150.859V28.986H161.128ZM167.566 42H166.567C166.357 42 166.192 41.97 166.072 41.91C165.952 41.844 165.862 41.715 165.802 41.523L165.604 40.866C165.37 41.076 165.139 41.262 164.911 41.424C164.689 41.58 164.458 41.712 164.218 41.82C163.978 41.928 163.723 42.009 163.453 42.063C163.183 42.117 162.883 42.144 162.553 42.144C162.163 42.144 161.803 42.093 161.473 41.991C161.143 41.883 160.858 41.724 160.618 41.514C160.384 41.304 160.201 41.043 160.069 40.731C159.937 40.419 159.871 40.056 159.871 39.642C159.871 39.294 159.961 38.952 160.141 38.616C160.327 38.274 160.633 37.968 161.059 37.698C161.485 37.422 162.052 37.194 162.76 37.014C163.468 36.834 164.347 36.732 165.397 36.708V36.168C165.397 35.55 165.265 35.094 165.001 34.8C164.743 34.5 164.365 34.35 163.867 34.35C163.507 34.35 163.207 34.392 162.967 34.476C162.727 34.56 162.517 34.656 162.337 34.764C162.163 34.866 162.001 34.959 161.851 35.043C161.701 35.127 161.536 35.169 161.356 35.169C161.206 35.169 161.077 35.13 160.969 35.052C160.861 34.974 160.774 34.878 160.708 34.764L160.303 34.053C161.365 33.081 162.646 32.595 164.146 32.595C164.686 32.595 165.166 32.685 165.586 32.865C166.012 33.039 166.372 33.285 166.666 33.603C166.96 33.915 167.182 34.29 167.332 34.728C167.488 35.166 167.566 35.646 167.566 36.168V42ZM163.246 40.614C163.474 40.614 163.684 40.593 163.876 40.551C164.068 40.509 164.248 40.446 164.416 40.362C164.59 40.278 164.755 40.176 164.911 40.056C165.073 39.93 165.235 39.783 165.397 39.615V38.058C164.749 38.088 164.206 38.145 163.768 38.229C163.336 38.307 162.988 38.409 162.724 38.535C162.46 38.661 162.271 38.808 162.157 38.976C162.049 39.144 161.995 39.327 161.995 39.525C161.995 39.915 162.109 40.194 162.337 40.362C162.571 40.53 162.874 40.614 163.246 40.614ZM175.224 34.566C175.164 34.662 175.101 34.731 175.035 34.773C174.969 34.809 174.885 34.827 174.783 34.827C174.675 34.827 174.558 34.797 174.432 34.737C174.312 34.677 174.171 34.611 174.009 34.539C173.847 34.461 173.661 34.392 173.451 34.332C173.247 34.272 173.004 34.242 172.722 34.242C172.284 34.242 171.939 34.335 171.687 34.521C171.435 34.707 171.309 34.95 171.309 35.25C171.309 35.448 171.372 35.616 171.498 35.754C171.63 35.886 171.801 36.003 172.011 36.105C172.227 36.207 172.47 36.3 172.74 36.384C173.01 36.462 173.286 36.549 173.568 36.645C173.85 36.741 174.126 36.852 174.396 36.978C174.666 37.098 174.906 37.254 175.116 37.446C175.332 37.632 175.503 37.857 175.629 38.121C175.761 38.385 175.827 38.703 175.827 39.075C175.827 39.519 175.746 39.93 175.584 40.308C175.422 40.68 175.185 41.004 174.873 41.28C174.561 41.55 174.174 41.763 173.712 41.919C173.256 42.069 172.731 42.144 172.137 42.144C171.819 42.144 171.507 42.114 171.201 42.054C170.901 42 170.61 41.922 170.328 41.82C170.052 41.718 169.794 41.598 169.554 41.46C169.32 41.322 169.113 41.172 168.933 41.01L169.446 40.164C169.512 40.062 169.59 39.984 169.68 39.93C169.77 39.876 169.884 39.849 170.022 39.849C170.16 39.849 170.289 39.888 170.409 39.966C170.535 40.044 170.679 40.128 170.841 40.218C171.003 40.308 171.192 40.392 171.408 40.47C171.63 40.548 171.909 40.587 172.245 40.587C172.509 40.587 172.734 40.557 172.92 40.497C173.112 40.431 173.268 40.347 173.388 40.245C173.514 40.143 173.604 40.026 173.658 39.894C173.718 39.756 173.748 39.615 173.748 39.471C173.748 39.255 173.682 39.078 173.55 38.94C173.424 38.802 173.253 38.682 173.037 38.58C172.827 38.478 172.584 38.388 172.308 38.31C172.038 38.226 171.759 38.136 171.471 38.04C171.189 37.944 170.91 37.833 170.634 37.707C170.364 37.575 170.121 37.41 169.905 37.212C169.695 37.014 169.524 36.771 169.392 36.483C169.266 36.195 169.203 35.847 169.203 35.439C169.203 35.061 169.278 34.701 169.428 34.359C169.578 34.017 169.797 33.72 170.085 33.468C170.379 33.21 170.742 33.006 171.174 32.856C171.612 32.7 172.116 32.622 172.686 32.622C173.322 32.622 173.901 32.727 174.423 32.937C174.945 33.147 175.38 33.423 175.728 33.765L175.224 34.566ZM184.827 42H183.828C183.618 42 183.453 41.97 183.333 41.91C183.213 41.844 183.123 41.715 183.063 41.523L182.865 40.866C182.631 41.076 182.4 41.262 182.172 41.424C181.95 41.58 181.719 41.712 181.479 41.82C181.239 41.928 180.984 42.009 180.714 42.063C180.444 42.117 180.144 42.144 179.814 42.144C179.424 42.144 179.064 42.093 178.734 41.991C178.404 41.883 178.119 41.724 177.879 41.514C177.645 41.304 177.462 41.043 177.33 40.731C177.198 40.419 177.132 40.056 177.132 39.642C177.132 39.294 177.222 38.952 177.402 38.616C177.588 38.274 177.894 37.968 178.32 37.698C178.746 37.422 179.313 37.194 180.021 37.014C180.729 36.834 181.608 36.732 182.658 36.708V36.168C182.658 35.55 182.526 35.094 182.262 34.8C182.004 34.5 181.626 34.35 181.128 34.35C180.768 34.35 180.468 34.392 180.228 34.476C179.988 34.56 179.778 34.656 179.598 34.764C179.424 34.866 179.262 34.959 179.112 35.043C178.962 35.127 178.797 35.169 178.617 35.169C178.467 35.169 178.338 35.13 178.23 35.052C178.122 34.974 178.035 34.878 177.969 34.764L177.564 34.053C178.626 33.081 179.907 32.595 181.407 32.595C181.947 32.595 182.427 32.685 182.847 32.865C183.273 33.039 183.633 33.285 183.927 33.603C184.221 33.915 184.443 34.29 184.593 34.728C184.749 35.166 184.827 35.646 184.827 36.168V42ZM180.507 40.614C180.735 40.614 180.945 40.593 181.137 40.551C181.329 40.509 181.509 40.446 181.677 40.362C181.851 40.278 182.016 40.176 182.172 40.056C182.334 39.93 182.496 39.783 182.658 39.615V38.058C182.01 38.088 181.467 38.145 181.029 38.229C180.597 38.307 180.249 38.409 179.985 38.535C179.721 38.661 179.532 38.808 179.418 38.976C179.31 39.144 179.256 39.327 179.256 39.525C179.256 39.915 179.37 40.194 179.598 40.362C179.832 40.53 180.135 40.614 180.507 40.614ZM196.974 42C196.686 42 196.497 41.865 196.407 41.595L196.227 40.704C196.035 40.92 195.834 41.115 195.624 41.289C195.414 41.463 195.186 41.613 194.94 41.739C194.7 41.865 194.439 41.961 194.157 42.027C193.881 42.099 193.581 42.135 193.257 42.135C192.753 42.135 192.291 42.03 191.871 41.82C191.451 41.61 191.088 41.307 190.782 40.911C190.482 40.509 190.248 40.014 190.08 39.426C189.918 38.838 189.837 38.166 189.837 37.41C189.837 36.726 189.93 36.09 190.116 35.502C190.302 34.914 190.569 34.404 190.917 33.972C191.265 33.54 191.682 33.204 192.168 32.964C192.654 32.718 193.2 32.595 193.806 32.595C194.322 32.595 194.763 32.679 195.129 32.847C195.495 33.009 195.822 33.228 196.11 33.504V28.626H198.333V42H196.974ZM194.013 40.371C194.475 40.371 194.868 40.275 195.192 40.083C195.516 39.891 195.822 39.618 196.11 39.264V35.124C195.858 34.818 195.582 34.602 195.282 34.476C194.988 34.35 194.67 34.287 194.328 34.287C193.992 34.287 193.686 34.35 193.41 34.476C193.14 34.602 192.909 34.794 192.717 35.052C192.531 35.304 192.387 35.628 192.285 36.024C192.183 36.414 192.132 36.876 192.132 37.41C192.132 37.95 192.174 38.409 192.258 38.787C192.348 39.159 192.474 39.465 192.636 39.705C192.798 39.939 192.996 40.11 193.23 40.218C193.464 40.32 193.725 40.371 194.013 40.371ZM204.548 32.622C205.13 32.622 205.664 32.715 206.15 32.901C206.642 33.087 207.065 33.36 207.419 33.72C207.773 34.074 208.049 34.512 208.247 35.034C208.445 35.55 208.544 36.141 208.544 36.807C208.544 36.975 208.535 37.116 208.517 37.23C208.505 37.338 208.478 37.425 208.436 37.491C208.4 37.551 208.349 37.596 208.283 37.626C208.217 37.65 208.133 37.662 208.031 37.662H202.325C202.391 38.61 202.646 39.306 203.09 39.75C203.534 40.194 204.122 40.416 204.854 40.416C205.214 40.416 205.523 40.374 205.781 40.29C206.045 40.206 206.273 40.113 206.465 40.011C206.663 39.909 206.834 39.816 206.978 39.732C207.128 39.648 207.272 39.606 207.41 39.606C207.5 39.606 207.578 39.624 207.644 39.66C207.71 39.696 207.767 39.747 207.815 39.813L208.463 40.623C208.217 40.911 207.941 41.154 207.635 41.352C207.329 41.544 207.008 41.7 206.672 41.82C206.342 41.934 206.003 42.015 205.655 42.063C205.313 42.111 204.98 42.135 204.656 42.135C204.014 42.135 203.417 42.03 202.865 41.82C202.313 41.604 201.833 41.289 201.425 40.875C201.017 40.455 200.696 39.939 200.462 39.327C200.228 38.709 200.111 37.995 200.111 37.185C200.111 36.555 200.213 35.964 200.417 35.412C200.621 34.854 200.912 34.371 201.29 33.963C201.674 33.549 202.139 33.222 202.685 32.982C203.237 32.742 203.858 32.622 204.548 32.622ZM204.593 34.215C203.945 34.215 203.438 34.398 203.072 34.764C202.706 35.13 202.472 35.649 202.37 36.321H206.546C206.546 36.033 206.507 35.763 206.429 35.511C206.351 35.253 206.231 35.028 206.069 34.836C205.907 34.644 205.703 34.494 205.457 34.386C205.211 34.272 204.923 34.215 204.593 34.215ZM225.375 42H223.503C223.293 42 223.119 41.949 222.981 41.847C222.849 41.739 222.753 41.607 222.693 41.451L221.721 38.796H216.33L215.358 41.451C215.31 41.589 215.214 41.715 215.07 41.829C214.932 41.943 214.761 42 214.557 42H212.676L217.788 28.986H220.263L225.375 42ZM216.951 37.086H221.1L219.516 32.757C219.444 32.565 219.363 32.34 219.273 32.082C219.189 31.818 219.105 31.533 219.021 31.227C218.937 31.533 218.853 31.818 218.769 32.082C218.691 32.346 218.613 32.577 218.535 32.775L216.951 37.086ZM233.069 34.719C233.003 34.803 232.937 34.869 232.871 34.917C232.811 34.965 232.721 34.989 232.601 34.989C232.487 34.989 232.376 34.956 232.268 34.89C232.16 34.818 232.031 34.74 231.881 34.656C231.731 34.566 231.551 34.488 231.341 34.422C231.137 34.35 230.882 34.314 230.576 34.314C230.186 34.314 229.844 34.386 229.55 34.53C229.256 34.668 229.01 34.869 228.812 35.133C228.62 35.397 228.476 35.718 228.38 36.096C228.284 36.468 228.236 36.891 228.236 37.365C228.236 37.857 228.287 38.295 228.389 38.679C228.497 39.063 228.65 39.387 228.848 39.651C229.046 39.909 229.286 40.107 229.568 40.245C229.85 40.377 230.168 40.443 230.522 40.443C230.876 40.443 231.161 40.401 231.377 40.317C231.599 40.227 231.785 40.131 231.935 40.029C232.085 39.921 232.214 39.825 232.322 39.741C232.436 39.651 232.562 39.606 232.7 39.606C232.88 39.606 233.015 39.675 233.105 39.813L233.744 40.623C233.498 40.911 233.231 41.154 232.943 41.352C232.655 41.544 232.355 41.7 232.043 41.82C231.737 41.934 231.419 42.015 231.089 42.063C230.759 42.111 230.432 42.135 230.108 42.135C229.538 42.135 229.001 42.03 228.497 41.82C227.993 41.604 227.552 41.292 227.174 40.884C226.802 40.476 226.505 39.978 226.283 39.39C226.067 38.796 225.959 38.121 225.959 37.365C225.959 36.687 226.055 36.06 226.247 35.484C226.445 34.902 226.733 34.401 227.111 33.981C227.489 33.555 227.957 33.222 228.515 32.982C229.073 32.742 229.715 32.622 230.441 32.622C231.131 32.622 231.734 32.733 232.25 32.955C232.772 33.177 233.24 33.495 233.654 33.909L233.069 34.719ZM241.638 34.719C241.572 34.803 241.506 34.869 241.44 34.917C241.38 34.965 241.29 34.989 241.17 34.989C241.056 34.989 240.945 34.956 240.837 34.89C240.729 34.818 240.6 34.74 240.45 34.656C240.3 34.566 240.12 34.488 239.91 34.422C239.706 34.35 239.451 34.314 239.145 34.314C238.755 34.314 238.413 34.386 238.119 34.53C237.825 34.668 237.579 34.869 237.381 35.133C237.189 35.397 237.045 35.718 236.949 36.096C236.853 36.468 236.805 36.891 236.805 37.365C236.805 37.857 236.856 38.295 236.958 38.679C237.066 39.063 237.219 39.387 237.417 39.651C237.615 39.909 237.855 40.107 238.137 40.245C238.419 40.377 238.737 40.443 239.091 40.443C239.445 40.443 239.73 40.401 239.946 40.317C240.168 40.227 240.354 40.131 240.504 40.029C240.654 39.921 240.783 39.825 240.891 39.741C241.005 39.651 241.131 39.606 241.269 39.606C241.449 39.606 241.584 39.675 241.674 39.813L242.313 40.623C242.067 40.911 241.8 41.154 241.512 41.352C241.224 41.544 240.924 41.7 240.612 41.82C240.306 41.934 239.988 42.015 239.658 42.063C239.328 42.111 239.001 42.135 238.677 42.135C238.107 42.135 237.57 42.03 237.066 41.82C236.562 41.604 236.121 41.292 235.743 40.884C235.371 40.476 235.074 39.978 234.852 39.39C234.636 38.796 234.528 38.121 234.528 37.365C234.528 36.687 234.624 36.06 234.816 35.484C235.014 34.902 235.302 34.401 235.68 33.981C236.058 33.555 236.526 33.222 237.084 32.982C237.642 32.742 238.284 32.622 239.01 32.622C239.7 32.622 240.303 32.733 240.819 32.955C241.341 33.177 241.809 33.495 242.223 33.909L241.638 34.719ZM246.086 32.766V42H243.863V32.766H246.086ZM246.419 30.075C246.419 30.267 246.38 30.447 246.302 30.615C246.224 30.783 246.119 30.93 245.987 31.056C245.861 31.182 245.711 31.284 245.537 31.362C245.363 31.434 245.177 31.47 244.979 31.47C244.787 31.47 244.604 31.434 244.43 31.362C244.262 31.284 244.115 31.182 243.989 31.056C243.863 30.93 243.761 30.783 243.683 30.615C243.611 30.447 243.575 30.267 243.575 30.075C243.575 29.877 243.611 29.691 243.683 29.517C243.761 29.343 243.863 29.193 243.989 29.067C244.115 28.941 244.262 28.842 244.43 28.77C244.604 28.692 244.787 28.653 244.979 28.653C245.177 28.653 245.363 28.692 245.537 28.77C245.711 28.842 245.861 28.941 245.987 29.067C246.119 29.193 246.224 29.343 246.302 29.517C246.38 29.691 246.419 29.877 246.419 30.075ZM255.094 42C254.806 42 254.617 41.865 254.527 41.595L254.347 40.704C254.155 40.92 253.954 41.115 253.744 41.289C253.534 41.463 253.306 41.613 253.06 41.739C252.82 41.865 252.559 41.961 252.277 42.027C252.001 42.099 251.701 42.135 251.377 42.135C250.873 42.135 250.411 42.03 249.991 41.82C249.571 41.61 249.208 41.307 248.902 40.911C248.602 40.509 248.368 40.014 248.2 39.426C248.038 38.838 247.957 38.166 247.957 37.41C247.957 36.726 248.05 36.09 248.236 35.502C248.422 34.914 248.689 34.404 249.037 33.972C249.385 33.54 249.802 33.204 250.288 32.964C250.774 32.718 251.32 32.595 251.926 32.595C252.442 32.595 252.883 32.679 253.249 32.847C253.615 33.009 253.942 33.228 254.23 33.504V28.626H256.453V42H255.094ZM252.133 40.371C252.595 40.371 252.988 40.275 253.312 40.083C253.636 39.891 253.942 39.618 254.23 39.264V35.124C253.978 34.818 253.702 34.602 253.402 34.476C253.108 34.35 252.79 34.287 252.448 34.287C252.112 34.287 251.806 34.35 251.53 34.476C251.26 34.602 251.029 34.794 250.837 35.052C250.651 35.304 250.507 35.628 250.405 36.024C250.303 36.414 250.252 36.876 250.252 37.41C250.252 37.95 250.294 38.409 250.378 38.787C250.468 39.159 250.594 39.465 250.756 39.705C250.918 39.939 251.116 40.11 251.35 40.218C251.584 40.32 251.845 40.371 252.133 40.371ZM262.669 32.622C263.251 32.622 263.785 32.715 264.271 32.901C264.763 33.087 265.186 33.36 265.54 33.72C265.894 34.074 266.17 34.512 266.368 35.034C266.566 35.55 266.665 36.141 266.665 36.807C266.665 36.975 266.656 37.116 266.638 37.23C266.626 37.338 266.599 37.425 266.557 37.491C266.521 37.551 266.47 37.596 266.404 37.626C266.338 37.65 266.254 37.662 266.152 37.662H260.446C260.512 38.61 260.767 39.306 261.211 39.75C261.655 40.194 262.243 40.416 262.975 40.416C263.335 40.416 263.644 40.374 263.902 40.29C264.166 40.206 264.394 40.113 264.586 40.011C264.784 39.909 264.955 39.816 265.099 39.732C265.249 39.648 265.393 39.606 265.531 39.606C265.621 39.606 265.699 39.624 265.765 39.66C265.831 39.696 265.888 39.747 265.936 39.813L266.584 40.623C266.338 40.911 266.062 41.154 265.756 41.352C265.45 41.544 265.129 41.7 264.793 41.82C264.463 41.934 264.124 42.015 263.776 42.063C263.434 42.111 263.101 42.135 262.777 42.135C262.135 42.135 261.538 42.03 260.986 41.82C260.434 41.604 259.954 41.289 259.546 40.875C259.138 40.455 258.817 39.939 258.583 39.327C258.349 38.709 258.232 37.995 258.232 37.185C258.232 36.555 258.334 35.964 258.538 35.412C258.742 34.854 259.033 34.371 259.411 33.963C259.795 33.549 260.26 33.222 260.806 32.982C261.358 32.742 261.979 32.622 262.669 32.622ZM262.714 34.215C262.066 34.215 261.559 34.398 261.193 34.764C260.827 35.13 260.593 35.649 260.491 36.321H264.667C264.667 36.033 264.628 35.763 264.55 35.511C264.472 35.253 264.352 35.028 264.19 34.836C264.028 34.644 263.824 34.494 263.578 34.386C263.332 34.272 263.044 34.215 262.714 34.215ZM268.459 42V32.766H269.818C270.106 32.766 270.295 32.901 270.385 33.171L270.538 33.9C270.724 33.708 270.919 33.534 271.123 33.378C271.333 33.222 271.552 33.087 271.78 32.973C272.014 32.859 272.263 32.772 272.527 32.712C272.791 32.652 273.079 32.622 273.391 32.622C273.895 32.622 274.342 32.709 274.732 32.883C275.122 33.051 275.446 33.291 275.704 33.603C275.968 33.909 276.166 34.278 276.298 34.71C276.436 35.136 276.505 35.607 276.505 36.123V42H274.282V36.123C274.282 35.559 274.15 35.124 273.886 34.818C273.628 34.506 273.238 34.35 272.716 34.35C272.332 34.35 271.972 34.437 271.636 34.611C271.3 34.785 270.982 35.022 270.682 35.322V42H268.459ZM281.714 42.144C280.916 42.144 280.301 41.919 279.869 41.469C279.437 41.013 279.221 40.386 279.221 39.588V34.431H278.285C278.165 34.431 278.06 34.392 277.97 34.314C277.886 34.236 277.844 34.119 277.844 33.963V33.081L279.329 32.838L279.797 30.318C279.821 30.198 279.875 30.105 279.959 30.039C280.049 29.973 280.16 29.94 280.292 29.94H281.444V32.847H283.874V34.431H281.444V39.435C281.444 39.723 281.516 39.948 281.66 40.11C281.804 40.272 281.996 40.353 282.236 40.353C282.374 40.353 282.488 40.338 282.578 40.308C282.674 40.272 282.755 40.236 282.821 40.2C282.893 40.164 282.956 40.131 283.01 40.101C283.064 40.065 283.118 40.047 283.172 40.047C283.238 40.047 283.292 40.065 283.334 40.101C283.376 40.131 283.421 40.179 283.469 40.245L284.135 41.325C283.811 41.595 283.439 41.799 283.019 41.937C282.599 42.075 282.164 42.144 281.714 42.144ZM292.869 42H291.87C291.66 42 291.495 41.97 291.375 41.91C291.255 41.844 291.165 41.715 291.105 41.523L290.907 40.866C290.673 41.076 290.442 41.262 290.214 41.424C289.992 41.58 289.761 41.712 289.521 41.82C289.281 41.928 289.026 42.009 288.756 42.063C288.486 42.117 288.186 42.144 287.856 42.144C287.466 42.144 287.106 42.093 286.776 41.991C286.446 41.883 286.161 41.724 285.921 41.514C285.687 41.304 285.504 41.043 285.372 40.731C285.24 40.419 285.174 40.056 285.174 39.642C285.174 39.294 285.264 38.952 285.444 38.616C285.63 38.274 285.936 37.968 286.362 37.698C286.788 37.422 287.355 37.194 288.063 37.014C288.771 36.834 289.65 36.732 290.7 36.708V36.168C290.7 35.55 290.568 35.094 290.304 34.8C290.046 34.5 289.668 34.35 289.17 34.35C288.81 34.35 288.51 34.392 288.27 34.476C288.03 34.56 287.82 34.656 287.64 34.764C287.466 34.866 287.304 34.959 287.154 35.043C287.004 35.127 286.839 35.169 286.659 35.169C286.509 35.169 286.38 35.13 286.272 35.052C286.164 34.974 286.077 34.878 286.011 34.764L285.606 34.053C286.668 33.081 287.949 32.595 289.449 32.595C289.989 32.595 290.469 32.685 290.889 32.865C291.315 33.039 291.675 33.285 291.969 33.603C292.263 33.915 292.485 34.29 292.635 34.728C292.791 35.166 292.869 35.646 292.869 36.168V42ZM288.549 40.614C288.777 40.614 288.987 40.593 289.179 40.551C289.371 40.509 289.551 40.446 289.719 40.362C289.893 40.278 290.058 40.176 290.214 40.056C290.376 39.93 290.538 39.783 290.7 39.615V38.058C290.052 38.088 289.509 38.145 289.071 38.229C288.639 38.307 288.291 38.409 288.027 38.535C287.763 38.661 287.574 38.808 287.46 38.976C287.352 39.144 287.298 39.327 287.298 39.525C287.298 39.915 287.412 40.194 287.64 40.362C287.874 40.53 288.177 40.614 288.549 40.614ZM295.072 42V28.626H297.295V33.9C297.661 33.51 298.075 33.201 298.537 32.973C298.999 32.739 299.539 32.622 300.157 32.622C300.661 32.622 301.12 32.727 301.534 32.937C301.954 33.141 302.314 33.441 302.614 33.837C302.92 34.233 303.154 34.722 303.316 35.304C303.484 35.886 303.568 36.555 303.568 37.311C303.568 38.001 303.475 38.64 303.289 39.228C303.103 39.816 302.836 40.326 302.488 40.758C302.146 41.19 301.729 41.529 301.237 41.775C300.751 42.015 300.205 42.135 299.599 42.135C299.317 42.135 299.059 42.105 298.825 42.045C298.591 41.991 298.378 41.913 298.186 41.811C297.994 41.709 297.814 41.586 297.646 41.442C297.484 41.292 297.328 41.127 297.178 40.947L297.079 41.568C297.043 41.724 296.98 41.835 296.89 41.901C296.806 41.967 296.689 42 296.539 42H295.072ZM299.392 34.35C298.93 34.35 298.534 34.449 298.204 34.647C297.88 34.839 297.577 35.112 297.295 35.466V39.606C297.547 39.918 297.82 40.137 298.114 40.263C298.414 40.383 298.738 40.443 299.086 40.443C299.422 40.443 299.725 40.38 299.995 40.254C300.265 40.128 300.493 39.936 300.679 39.678C300.871 39.42 301.018 39.096 301.12 38.706C301.222 38.31 301.273 37.845 301.273 37.311C301.273 36.771 301.228 36.315 301.138 35.943C301.054 35.565 300.931 35.259 300.769 35.025C300.607 34.791 300.409 34.62 300.175 34.512C299.947 34.404 299.686 34.35 299.392 34.35ZM307.669 32.766V42H305.446V32.766H307.669ZM308.002 30.075C308.002 30.267 307.963 30.447 307.885 30.615C307.807 30.783 307.702 30.93 307.57 31.056C307.444 31.182 307.294 31.284 307.12 31.362C306.946 31.434 306.76 31.47 306.562 31.47C306.37 31.47 306.187 31.434 306.013 31.362C305.845 31.284 305.698 31.182 305.572 31.056C305.446 30.93 305.344 30.783 305.266 30.615C305.194 30.447 305.158 30.267 305.158 30.075C305.158 29.877 305.194 29.691 305.266 29.517C305.344 29.343 305.446 29.193 305.572 29.067C305.698 28.941 305.845 28.842 306.013 28.77C306.187 28.692 306.37 28.653 306.562 28.653C306.76 28.653 306.946 28.692 307.12 28.77C307.294 28.842 307.444 28.941 307.57 29.067C307.702 29.193 307.807 29.343 307.885 29.517C307.963 29.691 308.002 29.877 308.002 30.075ZM312.547 28.626V42H310.324V28.626H312.547ZM317.424 32.766V42H315.201V32.766H317.424ZM317.757 30.075C317.757 30.267 317.718 30.447 317.64 30.615C317.562 30.783 317.457 30.93 317.325 31.056C317.199 31.182 317.049 31.284 316.875 31.362C316.701 31.434 316.515 31.47 316.317 31.47C316.125 31.47 315.942 31.434 315.768 31.362C315.6 31.284 315.453 31.182 315.327 31.056C315.201 30.93 315.099 30.783 315.021 30.615C314.949 30.447 314.913 30.267 314.913 30.075C314.913 29.877 314.949 29.691 315.021 29.517C315.099 29.343 315.201 29.193 315.327 29.067C315.453 28.941 315.6 28.842 315.768 28.77C315.942 28.692 316.125 28.653 316.317 28.653C316.515 28.653 316.701 28.692 316.875 28.77C317.049 28.842 317.199 28.941 317.325 29.067C317.457 29.193 317.562 29.343 317.64 29.517C317.718 29.691 317.757 29.877 317.757 30.075ZM326.433 42C326.145 42 325.956 41.865 325.866 41.595L325.686 40.704C325.494 40.92 325.293 41.115 325.083 41.289C324.873 41.463 324.645 41.613 324.399 41.739C324.159 41.865 323.898 41.961 323.616 42.027C323.34 42.099 323.04 42.135 322.716 42.135C322.212 42.135 321.75 42.03 321.33 41.82C320.91 41.61 320.547 41.307 320.241 40.911C319.941 40.509 319.707 40.014 319.539 39.426C319.377 38.838 319.296 38.166 319.296 37.41C319.296 36.726 319.389 36.09 319.575 35.502C319.761 34.914 320.028 34.404 320.376 33.972C320.724 33.54 321.141 33.204 321.627 32.964C322.113 32.718 322.659 32.595 323.265 32.595C323.781 32.595 324.222 32.679 324.588 32.847C324.954 33.009 325.281 33.228 325.569 33.504V28.626H327.792V42H326.433ZM323.472 40.371C323.934 40.371 324.327 40.275 324.651 40.083C324.975 39.891 325.281 39.618 325.569 39.264V35.124C325.317 34.818 325.041 34.602 324.741 34.476C324.447 34.35 324.129 34.287 323.787 34.287C323.451 34.287 323.145 34.35 322.869 34.476C322.599 34.602 322.368 34.794 322.176 35.052C321.99 35.304 321.846 35.628 321.744 36.024C321.642 36.414 321.591 36.876 321.591 37.41C321.591 37.95 321.633 38.409 321.717 38.787C321.807 39.159 321.933 39.465 322.095 39.705C322.257 39.939 322.455 40.11 322.689 40.218C322.923 40.32 323.184 40.371 323.472 40.371ZM337.428 42H336.429C336.219 42 336.054 41.97 335.934 41.91C335.814 41.844 335.724 41.715 335.664 41.523L335.466 40.866C335.232 41.076 335.001 41.262 334.773 41.424C334.551 41.58 334.32 41.712 334.08 41.82C333.84 41.928 333.585 42.009 333.315 42.063C333.045 42.117 332.745 42.144 332.415 42.144C332.025 42.144 331.665 42.093 331.335 41.991C331.005 41.883 330.72 41.724 330.48 41.514C330.246 41.304 330.063 41.043 329.931 40.731C329.799 40.419 329.733 40.056 329.733 39.642C329.733 39.294 329.823 38.952 330.003 38.616C330.189 38.274 330.495 37.968 330.921 37.698C331.347 37.422 331.914 37.194 332.622 37.014C333.33 36.834 334.209 36.732 335.259 36.708V36.168C335.259 35.55 335.127 35.094 334.863 34.8C334.605 34.5 334.227 34.35 333.729 34.35C333.369 34.35 333.069 34.392 332.829 34.476C332.589 34.56 332.379 34.656 332.199 34.764C332.025 34.866 331.863 34.959 331.713 35.043C331.563 35.127 331.398 35.169 331.218 35.169C331.068 35.169 330.939 35.13 330.831 35.052C330.723 34.974 330.636 34.878 330.57 34.764L330.165 34.053C331.227 33.081 332.508 32.595 334.008 32.595C334.548 32.595 335.028 32.685 335.448 32.865C335.874 33.039 336.234 33.285 336.528 33.603C336.822 33.915 337.044 34.29 337.194 34.728C337.35 35.166 337.428 35.646 337.428 36.168V42ZM333.108 40.614C333.336 40.614 333.546 40.593 333.738 40.551C333.93 40.509 334.11 40.446 334.278 40.362C334.452 40.278 334.617 40.176 334.773 40.056C334.935 39.93 335.097 39.783 335.259 39.615V38.058C334.611 38.088 334.068 38.145 333.63 38.229C333.198 38.307 332.85 38.409 332.586 38.535C332.322 38.661 332.133 38.808 332.019 38.976C331.911 39.144 331.857 39.327 331.857 39.525C331.857 39.915 331.971 40.194 332.199 40.362C332.433 40.53 332.736 40.614 333.108 40.614ZM346.103 42C345.815 42 345.626 41.865 345.536 41.595L345.356 40.704C345.164 40.92 344.963 41.115 344.753 41.289C344.543 41.463 344.315 41.613 344.069 41.739C343.829 41.865 343.568 41.961 343.286 42.027C343.01 42.099 342.71 42.135 342.386 42.135C341.882 42.135 341.42 42.03 341 41.82C340.58 41.61 340.217 41.307 339.911 40.911C339.611 40.509 339.377 40.014 339.209 39.426C339.047 38.838 338.966 38.166 338.966 37.41C338.966 36.726 339.059 36.09 339.245 35.502C339.431 34.914 339.698 34.404 340.046 33.972C340.394 33.54 340.811 33.204 341.297 32.964C341.783 32.718 342.329 32.595 342.935 32.595C343.451 32.595 343.892 32.679 344.258 32.847C344.624 33.009 344.951 33.228 345.239 33.504V28.626H347.462V42H346.103ZM343.142 40.371C343.604 40.371 343.997 40.275 344.321 40.083C344.645 39.891 344.951 39.618 345.239 39.264V35.124C344.987 34.818 344.711 34.602 344.411 34.476C344.117 34.35 343.799 34.287 343.457 34.287C343.121 34.287 342.815 34.35 342.539 34.476C342.269 34.602 342.038 34.794 341.846 35.052C341.66 35.304 341.516 35.628 341.414 36.024C341.312 36.414 341.261 36.876 341.261 37.41C341.261 37.95 341.303 38.409 341.387 38.787C341.477 39.159 341.603 39.465 341.765 39.705C341.927 39.939 342.125 40.11 342.359 40.218C342.593 40.32 342.854 40.371 343.142 40.371Z" fill="#333333"/>
</svg>
