<svg width="15" height="15" viewBox="0 0 15 15" fill="none" xmlns="http://www.w3.org/2000/svg">
<path d="M6.95695 4.136C6.95695 4.628 6.87295 5.072 6.70495 5.468C6.54295 5.864 6.32395 6.203 6.04795 6.485C5.77195 6.761 5.45095 6.974 5.08495 7.124C4.71895 7.274 4.33795 7.349 3.94195 7.349C3.50995 7.349 3.11095 7.274 2.74495 7.124C2.37895 6.974 2.06095 6.761 1.79095 6.485C1.52695 6.203 1.31995 5.864 1.16995 5.468C1.01995 5.072 0.944953 4.628 0.944953 4.136C0.944953 3.632 1.01995 3.176 1.16995 2.768C1.31995 2.36 1.52695 2.015 1.79095 1.733C2.06095 1.451 2.37895 1.235 2.74495 1.085C3.11095 0.928999 3.50995 0.850999 3.94195 0.850999C4.37395 0.850999 4.77295 0.928999 5.13895 1.085C5.51095 1.235 5.83195 1.451 6.10195 1.733C6.37195 2.015 6.58195 2.36 6.73195 2.768C6.88195 3.176 6.95695 3.632 6.95695 4.136ZM5.24695 4.136C5.24695 3.788 5.21095 3.497 5.13895 3.263C5.07295 3.029 4.97995 2.84 4.85995 2.696C4.74595 2.552 4.60795 2.45 4.44595 2.39C4.28995 2.324 4.12195 2.291 3.94195 2.291C3.76195 2.291 3.59395 2.324 3.43795 2.39C3.28195 2.45 3.14695 2.552 3.03295 2.696C2.92495 2.84 2.83795 3.029 2.77195 3.263C2.70595 3.497 2.67295 3.788 2.67295 4.136C2.67295 4.472 2.70595 4.754 2.77195 4.982C2.83795 5.204 2.92495 5.384 3.03295 5.522C3.14695 5.66 3.28195 5.759 3.43795 5.819C3.59395 5.879 3.76195 5.909 3.94195 5.909C4.12195 5.909 4.28995 5.879 4.44595 5.819C4.60795 5.759 4.74595 5.66 4.85995 5.522C4.97995 5.384 5.07295 5.204 5.13895 4.982C5.21095 4.754 5.24695 4.472 5.24695 4.136ZM11.286 1.337C11.364 1.247 11.454 1.166 11.556 1.094C11.664 1.022 11.814 0.985999 12.006 0.985999H13.626L3.95995 13.667C3.88195 13.763 3.78895 13.844 3.68095 13.91C3.57295 13.97 3.44095 14 3.28495 14H1.62895L11.286 1.337ZM14.31 10.94C14.31 11.432 14.226 11.876 14.058 12.272C13.896 12.668 13.677 13.007 13.401 13.289C13.125 13.565 12.804 13.781 12.438 13.937C12.072 14.087 11.691 14.162 11.295 14.162C10.863 14.162 10.464 14.087 10.098 13.937C9.73195 13.781 9.41395 13.565 9.14395 13.289C8.87995 13.007 8.67295 12.668 8.52295 12.272C8.37295 11.876 8.29795 11.432 8.29795 10.94C8.29795 10.436 8.37295 9.98 8.52295 9.572C8.67295 9.164 8.87995 8.819 9.14395 8.537C9.41395 8.255 9.73195 8.039 10.098 7.889C10.464 7.733 10.863 7.655 11.295 7.655C11.727 7.655 12.126 7.733 12.492 7.889C12.864 8.039 13.182 8.255 13.446 8.537C13.716 8.819 13.926 9.164 14.076 9.572C14.232 9.98 14.31 10.436 14.31 10.94ZM12.591 10.94C12.591 10.592 12.558 10.301 12.492 10.067C12.426 9.833 12.333 9.644 12.213 9.5C12.099 9.356 11.961 9.254 11.799 9.194C11.643 9.128 11.475 9.095 11.295 9.095C11.115 9.095 10.947 9.128 10.791 9.194C10.635 9.254 10.5 9.356 10.386 9.5C10.272 9.644 10.182 9.833 10.116 10.067C10.056 10.301 10.026 10.592 10.026 10.94C10.026 11.276 10.056 11.558 10.116 11.786C10.182 12.014 10.272 12.197 10.386 12.335C10.5 12.473 10.635 12.572 10.791 12.632C10.947 12.692 11.115 12.722 11.295 12.722C11.475 12.722 11.643 12.692 11.799 12.632C11.961 12.572 12.099 12.473 12.213 12.335C12.333 12.197 12.426 12.014 12.492 11.786C12.558 11.558 12.591 11.276 12.591 10.94Z" fill="#1870C1"/>
</svg>
