<svg width="19" height="19" viewBox="0 0 19 19" fill="none" xmlns="http://www.w3.org/2000/svg">
<path d="M19 4.31818C19 3.63103 18.727 2.97202 18.2411 2.48613C17.7553 2.00024 17.0962 1.72727 16.4091 1.72727H14.25V0.863636C14.25 0.634586 14.159 0.414916 13.997 0.252953C13.8351 0.09099 13.6154 0 13.3864 0C13.1573 0 12.9376 0.09099 12.7757 0.252953C12.6137 0.414916 12.5227 0.634586 12.5227 0.863636V1.72727H6.47727V0.863636C6.47727 0.634586 6.38628 0.414916 6.22432 0.252953C6.06236 0.09099 5.84269 0 5.61364 0C5.38459 0 5.16492 0.09099 5.00295 0.252953C4.84099 0.414916 4.75 0.634586 4.75 0.863636V1.72727H2.59091C1.90376 1.72727 1.24475 2.00024 0.75886 2.48613C0.27297 2.97202 0 3.63103 0 4.31818V16.4091C0 17.0962 0.27297 17.7553 0.75886 18.2411C1.24475 18.727 1.90376 19 2.59091 19H16.4091C17.0962 19 17.7553 18.727 18.2411 18.2411C18.727 17.7553 19 17.0962 19 16.4091V4.31818ZM3.02273 3.45455H4.75V4.31818C4.75 4.54723 4.84099 4.7669 5.00295 4.92886C5.16492 5.09083 5.38459 5.18182 5.61364 5.18182C5.84269 5.18182 6.06236 5.09083 6.22432 4.92886C6.38628 4.7669 6.47727 4.54723 6.47727 4.31818V3.45455H12.5227V4.31818C12.5227 4.54723 12.6137 4.7669 12.7757 4.92886C12.9376 5.09083 13.1573 5.18182 13.3864 5.18182C13.6154 5.18182 13.8351 5.09083 13.997 4.92886C14.159 4.7669 14.25 4.54723 14.25 4.31818V3.45455H15.9773C16.3208 3.45455 16.6504 3.59103 16.8933 3.83398C17.1362 4.07692 17.2727 4.40642 17.2727 4.75V6.90909H1.72727V4.75C1.72727 4.40642 1.86376 4.07692 2.1067 3.83398C2.34965 3.59103 2.67915 3.45455 3.02273 3.45455ZM15.9773 17.2727H3.02273C2.67915 17.2727 2.34965 17.1362 2.1067 16.8933C1.86376 16.6504 1.72727 16.3208 1.72727 15.9773V8.63636H17.2727V15.9773C17.2727 16.3208 17.1362 16.6504 16.8933 16.8933C16.6504 17.1362 16.3208 17.2727 15.9773 17.2727Z" fill="#1870C1"/>
</svg>
