<svg width="19" height="12" viewBox="0 0 19 12" fill="none" xmlns="http://www.w3.org/2000/svg">
<path d="M5.03838 9.845C5.48338 9.845 5.88088 9.77 6.23088 9.62C6.58088 9.47 6.87588 9.26 7.11588 8.99C7.36088 8.72 7.54588 8.3975 7.67088 8.0225C7.80088 7.6475 7.86588 7.235 7.86588 6.785V0.252499H9.31338V6.785C9.31338 7.405 9.21338 7.98 9.01338 8.51C8.81838 9.04 8.53588 9.5 8.16588 9.89C7.80088 10.275 7.35338 10.5775 6.82338 10.7975C6.29338 11.0175 5.69838 11.1275 5.03838 11.1275C4.37838 11.1275 3.78338 11.0175 3.25338 10.7975C2.72338 10.5775 2.27338 10.275 1.90338 9.89C1.53338 9.5 1.24838 9.04 1.04838 8.51C0.853376 7.98 0.755876 7.405 0.755876 6.785V0.252499H2.20338V6.7775C2.20338 7.2275 2.26588 7.64 2.39088 8.015C2.52088 8.39 2.70588 8.7125 2.94588 8.9825C3.19088 9.2525 3.48838 9.465 3.83838 9.62C4.19338 9.77 4.59338 9.845 5.03838 9.845ZM18.4314 0.252499V1.4375H13.2714V5.195H17.6814V6.38H13.2714V11H11.8089V0.252499H18.4314Z" fill="#1870C1"/>
</svg>
