<svg width="157" height="46" viewBox="0 0 157 46" fill="none" xmlns="http://www.w3.org/2000/svg">
<path d="M156.602 0C140.688 1.50208 131.217 12.7349 131.217 23.7034C131.217 27.7576 132.471 31.7061 134.75 35.1911H152.054C147.8 32.6572 145.356 28.2125 145.356 23.6399C145.356 17.9672 149.351 12.0205 156.602 10.5376V0Z" fill="#3778A3"/>
<path d="M122.818 35.1776V29.4135C122.818 14.387 113.366 10.601 104.529 10.601C97.1387 10.601 87.0897 13.4128 81.7603 17.3046V0.405762H67.228V35.1776H81.7603V27.3604C85.6376 24.438 94.4779 21.9512 99.4419 21.9512C107.194 21.9512 108.16 27.3604 108.16 33.0927V35.1776H122.818Z" fill="#3778A3"/>
<path d="M56.9741 0C41.0581 1.50111 31.5898 12.734 31.5898 23.7024C31.5898 27.7567 32.8438 31.7051 35.121 35.1901H52.4275C48.1733 32.6562 45.7278 28.2115 45.7278 23.6389C45.7278 17.9662 49.7253 12.0195 56.9741 10.5366V0Z" fill="#3778A3"/>
<path d="M25.3862 0C9.46538 1.50111 0 12.734 0 23.7024C0 27.7567 1.25397 31.7051 3.53305 35.1901H20.8377C16.5815 32.6562 14.136 28.2115 14.136 23.6389C14.136 17.9662 18.1374 12.0195 25.3862 10.5366V0Z" fill="#EA6140"/>
<path d="M5.99692 45.5906L5.80075 45.08C5.50264 45.2502 5.15934 45.3608 4.78526 45.3608C3.87363 45.3608 3.31876 44.6732 3.31876 43.7462C3.31876 42.8615 3.86113 42.1268 4.83046 42.1268C5.24108 42.1268 5.56706 42.2316 5.89883 42.4432L5.9123 41.7912C5.67862 41.6604 5.29012 41.5518 4.81988 41.5518C3.47359 41.5518 2.58984 42.5432 2.58984 43.7962C2.58984 45.0281 3.36396 45.9714 4.68236 45.9714C5.11798 45.9714 5.55649 45.8599 5.99692 45.5906ZM11.3888 45.9041L9.71076 41.5739H9.24244L7.60285 45.9041H8.27022L8.67123 44.8059H10.2397L10.6628 45.9041H11.3888ZM10.0194 44.2299H8.88279L9.29629 43.0663L9.4665 42.5432H9.47324L9.62806 43.075L10.0194 44.2299ZM17.3096 45.9041V41.5864H16.6624L15.519 43.4106L15.2748 43.8558H15.2681L15.0113 43.4212L13.7833 41.5864H13.1448V45.9041H13.8141V43.1404L13.7919 42.6942H13.8035L14.0477 43.1144L15.0892 44.6732H15.4402L16.4057 43.1317L16.6451 42.6942H16.6538L16.6451 43.149V45.9041H17.3096ZM22.8611 45.9041L21.1869 41.5739H20.7186L19.08 45.9041H19.7483L20.1455 44.8059H21.7129L22.1399 45.9041H22.8611ZM21.4966 44.2299H20.3551L20.7773 43.0663L20.9427 42.5432H20.9513L21.1004 43.075L21.4966 44.2299ZM27.6212 45.9041C26.9606 44.7992 26.5182 44.028 26.3365 43.9366V43.9318C26.7577 43.7635 27.1366 43.3827 27.1366 42.7913C27.1366 42.1268 26.7298 41.5864 25.6701 41.5864H24.6113V45.9041H25.295V44.1539H25.6816C25.8537 44.202 26.1807 44.7886 26.8423 45.9041H27.6212ZM26.448 42.8615C26.448 43.274 26.1259 43.6183 25.6893 43.6183H25.295V42.1855H25.6749C26.224 42.1855 26.448 42.4913 26.448 42.8615ZM32.7621 45.9041L31.0879 41.5739H30.6177L28.9762 45.9041H29.6493L30.0465 44.8059H31.6178L32.0399 45.9041H32.7621ZM31.3976 44.2299H30.2561L30.6783 43.0663L30.8437 42.5432H30.8504L31.0014 43.075L31.3976 44.2299ZM40.4898 45.5906L40.2985 45.08C39.9907 45.2502 39.6446 45.3608 39.2714 45.3608C38.3608 45.3608 37.8069 44.6732 37.8069 43.7462C37.8069 42.8615 38.3473 42.1268 39.3195 42.1268C39.7273 42.1268 40.0561 42.2316 40.3937 42.4432L40.4023 41.7912C40.1658 41.6604 39.7773 41.5518 39.3109 41.5518C37.9617 41.5518 37.0789 42.5432 37.0789 43.7962C37.0789 45.0281 37.8492 45.9714 39.1676 45.9714C39.6051 45.9714 40.0436 45.8599 40.4898 45.5906ZM45.851 45.9041V41.5864H45.1778V43.4106H43.0382V41.5864H42.366V45.9041H43.0382V44.0107H45.1778V45.9041H45.851ZM48.6868 41.5864H48.0108V45.9041H48.6868V41.5864ZM53.0651 45.9041V45.3175H51.5111V41.5864H50.8438V45.9041H53.0651ZM57.0886 45.9041V45.3175H55.4933V43.9924H56.8703V43.4019H55.4933V42.1768H56.8771L57.0838 41.5864H54.822V45.9041H57.0886ZM62.7892 45.9041V41.5864H62.1161V44.1914L62.1247 44.7944H62.1161C62.018 44.6155 61.9007 44.453 61.6699 44.1453L59.7562 41.5864H59.0734V45.9041H59.7447V43.1923L59.7274 42.6259H59.7447C59.8447 42.8067 59.961 42.975 60.1697 43.249L62.1603 45.9041H62.7892ZM68.334 45.9041L66.6531 41.5739H66.1867L64.548 45.9041H65.2173L65.6145 44.8059H67.1829L67.608 45.9041H68.334ZM66.9675 44.2299H65.8251L66.2415 43.0663L66.4117 42.5432H66.4165L66.5713 43.075L66.9675 44.2299ZM76.3579 43.7029C76.3579 42.4653 75.5886 41.5864 74.0259 41.5864H72.8652V45.9041H74C75.5299 45.9041 76.3579 44.9675 76.3579 43.7029ZM75.6463 43.7164C75.6463 44.5588 75.2078 45.3175 74.0307 45.3175H73.5345V42.1855H74.0307C75.1251 42.1855 75.6463 42.8375 75.6463 43.7164ZM80.565 45.9041V45.3175H78.9697V43.9924H80.3448V43.4019H78.9697V42.1768H80.3535L80.5583 41.5864H78.3004V45.9041H80.565ZM87.5427 45.9041V45.3175H85.9973V41.5864H85.329V45.9041H87.5427ZM92.6884 45.9041L91.0123 41.5739H90.5459L88.9053 45.9041H89.5717L89.9737 44.8059H91.5421L91.9652 45.9041H92.6884ZM91.3219 44.2299H90.1843L90.6026 43.0663L90.768 42.5432H90.7776L90.9315 43.075L91.3219 44.2299ZM100.412 45.5906L100.221 45.08C99.9199 45.2502 99.5689 45.3608 99.1987 45.3608C98.288 45.3608 97.7322 44.6732 97.7322 43.7462C97.7322 42.8615 98.2726 42.1268 99.2439 42.1268C99.6545 42.1268 99.9834 42.2316 100.317 42.4432L100.331 41.7912C100.09 41.6604 99.7045 41.5518 99.2381 41.5518C97.8889 41.5518 97.0033 42.5432 97.0033 43.7962C97.0033 45.0281 97.7774 45.9714 99.0977 45.9714C99.5314 45.9714 99.968 45.8599 100.412 45.5906ZM102.069 43.7837C102.069 44.4549 102.315 45.0415 102.742 45.4397C103.113 45.7781 103.612 45.9714 104.209 45.9714C104.832 45.9714 105.357 45.756 105.739 45.3675C106.133 44.9761 106.353 44.4049 106.353 43.7578C106.353 43.1471 106.166 42.6153 105.82 42.223C105.436 41.796 104.876 41.5518 104.209 41.5518C103.589 41.5518 103.052 41.7845 102.674 42.1768C102.291 42.5759 102.069 43.1404 102.069 43.7837ZM105.63 43.7664C105.63 44.7713 105.059 45.3896 104.209 45.3896C103.357 45.3896 102.782 44.7713 102.782 43.7664C102.782 42.7586 103.357 42.1422 104.209 42.1422C105.095 42.1422 105.63 42.8009 105.63 43.7664ZM112.003 45.9041V41.5864H111.331V44.1914L111.342 44.7944H111.331C111.231 44.6155 111.118 44.453 110.886 44.1453L108.969 41.5864H108.293V45.9041H108.957V43.1923L108.947 42.6259H108.957C109.058 42.8067 109.179 42.975 109.38 43.249L111.379 45.9041H112.003ZM116.627 44.7713C116.627 43.4481 114.777 43.4721 114.777 42.6192C114.777 42.2797 115.08 42.123 115.447 42.123C115.797 42.123 116.122 42.247 116.413 42.4259L116.423 41.7845C116.202 41.6652 115.864 41.5518 115.415 41.5518C114.557 41.5518 114.089 42.071 114.089 42.7009C114.089 43.0365 114.203 43.274 114.375 43.4721C114.888 44.0539 115.912 44.1914 115.912 44.8454C115.912 45.2416 115.505 45.4002 115.156 45.4002C114.759 45.4002 114.428 45.231 114.212 45.08L113.931 45.5974C114.203 45.7733 114.6 45.9714 115.182 45.9714C116.003 45.9714 116.627 45.4993 116.627 44.7713ZM121.439 41.5864H118.187V42.1768H119.41V45.9041H120.099V42.1768H121.259L121.439 41.5864ZM126.159 45.9041C125.495 44.7992 125.048 44.028 124.873 43.9366V43.9318C125.29 43.7635 125.667 43.3827 125.667 42.7913C125.667 42.1268 125.266 41.5864 124.205 41.5864H123.154V45.9041H123.825V44.1539H124.219C124.381 44.202 124.715 44.7886 125.373 45.9041H126.159ZM124.983 42.8615C124.983 43.274 124.665 43.6183 124.226 43.6183H123.825V42.1855H124.211C124.754 42.1855 124.983 42.4913 124.983 42.8615ZM131.183 44.3434V41.5864H130.508V44.3367C130.508 44.6482 130.447 44.9165 130.268 45.0983C130.11 45.2781 129.852 45.3771 129.479 45.3771C129.145 45.3771 128.9 45.2781 128.736 45.0983C128.556 44.8954 128.472 44.5992 128.472 44.2963V41.5864H127.805V44.3309C127.805 44.7838 127.897 45.2502 128.217 45.557C128.477 45.8185 128.884 45.9714 129.466 45.9714C130.072 45.9714 130.499 45.8012 130.774 45.5031C131.053 45.2175 131.183 44.8059 131.183 44.3434ZM136.555 45.5906L136.368 45.08C136.067 45.2502 135.721 45.3608 135.346 45.3608C134.433 45.3608 133.881 44.6732 133.881 43.7462C133.881 42.8615 134.421 42.1268 135.392 42.1268C135.801 42.1268 136.132 42.2316 136.462 42.4432L136.477 41.7912C136.237 41.6604 135.851 41.5518 135.385 41.5518C134.036 41.5518 133.147 42.5432 133.147 43.7962C133.147 45.0281 133.927 45.9676 135.244 45.9676C135.681 45.9676 136.115 45.8599 136.555 45.5906ZM141.633 45.5906L141.438 45.08C141.135 45.2502 140.786 45.3608 140.413 45.3608C139.504 45.3608 138.951 44.6732 138.951 43.7462C138.951 42.8615 139.486 42.1268 140.461 42.1268C140.871 42.1268 141.199 42.2316 141.533 42.4432L141.544 41.7912C141.307 41.6604 140.921 41.5518 140.452 41.5518C139.104 41.5518 138.214 42.5432 138.214 43.7962C138.214 45.0281 138.994 45.9676 140.314 45.9676C140.748 45.9676 141.187 45.8599 141.633 45.5906ZM144.179 41.5864H143.505V45.9041H144.179V41.5864ZM146.121 43.7837C146.121 44.4549 146.367 45.0415 146.787 45.4397C147.158 45.7772 147.661 45.9676 148.258 45.9676C148.883 45.9676 149.401 45.7531 149.79 45.3675C150.179 44.9761 150.397 44.4049 150.397 43.7578C150.397 43.1471 150.213 42.6153 149.867 42.2191C149.488 41.796 148.928 41.5518 148.258 41.5518C147.637 41.5518 147.102 41.7845 146.728 42.1768C146.336 42.5759 146.121 43.1365 146.121 43.7837ZM149.68 43.7664C149.68 44.7713 149.107 45.3896 148.258 45.3896C147.402 45.3896 146.835 44.7713 146.835 43.7664C146.835 42.7586 147.402 42.1422 148.258 42.1422C149.146 42.1422 149.68 42.8009 149.68 43.7664ZM156.053 45.9041V41.5864H155.381V44.1886L155.39 44.7944H155.381C155.283 44.6155 155.165 44.453 154.938 44.1414L153.017 41.5864H152.341V45.9041H153.008V43.1923L152.995 42.6259H153.008C153.112 42.8067 153.228 42.9731 153.433 43.249L155.421 45.9041H156.053Z" fill="#131718"/>
</svg>
